<svg xmlns="http://www.w3.org/2000/svg" xmlns:xlink="http://www.w3.org/1999/xlink" viewBox="0 0 380 178.3"><defs><style>.aae1647a-c25c-42f1-aabf-e816ac627e81{mask:url(#f138a002-2b93-4c35-bf36-dc8324cb203d);filter:url(#f9913b4e-2e3f-433f-bae7-1e58adce66cd);}.\39 0c28b04-1add-497b-834b-4ef51d959029,.d21af711-94b6-49ea-bbe0-1a64b1733947{mix-blend-mode:multiply;}.\39 0c28b04-1add-497b-834b-4ef51d959029{fill:url(#ef9ffb7f-9f5e-41dc-a7d6-4c5a7558b961);}.\34 cf4b294-662f-42d0-bdf6-28d46df17fa2{isolation:isolate;}.\35 4b6223b-dbed-415c-8745-b46a7cbf9a91{fill:#efefef;}.e7d192fb-909e-4d2e-8cd8-76ca6eb3478b{mask:url(#c3a6c7c0-1059-4838-9279-1951dbecbedd);}.e635f2e7-e799-460e-95e1-3505027351aa{fill:#cfd0d1;}.\38 b967cbf-c9e2-4c05-b197-3e1ccd0432dc{fill:#cdcdcd;}.b5ccc840-1f5e-40c9-8465-7184d5d4959c{opacity:0.8;}.\39 d4587e9-39a0-44c8-9c8b-8e2ab1a8d11f{opacity:0.4;}.\32 17ca6ae-9401-4180-a561-4a354fa67354{fill:#333;}.b4241c5b-0d79-4098-a7d7-9ab5fbde1432{opacity:0.9;}.bb7d5c1e-62eb-44a9-ad56-49f4688a33e9{opacity:0.6;}.\36 32d0491-25cd-4f0a-a6a3-7ac119c144bb{fill:#002539;}.acbda65f-8808-4c71-adbe-4d5983703f4c{fill:#ffb641;}.f9726759-5186-41b2-a781-9add2ba007ca{fill:#fff;}.\31 79b04eb-4c40-4868-b9b9-7657b9a6ff41{fill:#cddae0;}.\33 e15f637-bcf2-4b4e-9901-a32e6fa2fa97{fill:#da3236;}.\38 5c3cacb-fa42-4e35-bee2-71f4aca84f49{fill:#ffd127;}.ec171e82-e8eb-4972-98d4-d528784ad991{fill:#5da2f2;}.b96ce9f6-b2f4-45e1-aae4-e47de1360e22{fill:#0083ee;}.\38 8b2bf74-01ae-4e50-a2c3-9a11c824a6e2{fill:#ffdfaf;}.\36 1df7dbf-a153-4dcd-91e6-f2a9da884a85{fill:#bbbdbf;}.e4f95833-73ac-4c8b-bfd9-79af60869c52{fill:#f28f20;}.\36 c1dba78-fb46-4fd7-b2a4-5de76df2bd36{fill:#ffcb7b;}.\30 7668ec1-b66f-4cfc-af56-a796d39bf8a7{fill:#606675;}.db73faab-1f3d-4b5b-9d5d-c6e44aba5045{fill:#f9cf98;}.\31 db1589a-33d4-4162-8ac4-dd3e06153d40{fill:#0066ea;}.\32 7ae98e4-90b6-4ffc-a46a-ca1f3502f70c{fill:#fd8800;}.\33 0556522-9ab5-4d23-b803-55a507014a06{fill:#d43555;}.\37 7343f4a-aae4-47e2-ac23-5be653b5b761{fill:#415059;}.\30 a66c476-7d03-4b73-b43a-3b0018b88b63{fill:#0084ef;}.d21af711-94b6-49ea-bbe0-1a64b1733947{fill:url(#b40d6612-dae9-4289-afb8-e84e715265cf);}.\36 b1dd90e-27ed-4764-a9da-8283f9c4aca4{filter:url(#77793863-f712-4ae9-9f5c-67a53c699f2c);}</style><filter id="77793863-f712-4ae9-9f5c-67a53c699f2c" x="0" y="-9224.73" width="380" height="32766" filterUnits="userSpaceOnUse" color-interpolation-filters="sRGB"><feFlood flood-color="#fff" result="bg"/><feBlend in="SourceGraphic" in2="bg"/></filter><mask id="f138a002-2b93-4c35-bf36-dc8324cb203d" x="0" y="-9224.73" width="380" height="32766" maskUnits="userSpaceOnUse"><g class="6b1dd90e-27ed-4764-a9da-8283f9c4aca4"/></mask><linearGradient id="ef9ffb7f-9f5e-41dc-a7d6-4c5a7558b961" x1="9250.73" y1="18.45" x2="9250.73" y2="158.08" gradientTransform="matrix(-1, 0, 0, 1, 9440.73, 0)" gradientUnits="userSpaceOnUse"><stop offset="0" stop-color="#fff"/><stop offset="1"/></linearGradient><filter id="f9913b4e-2e3f-433f-bae7-1e58adce66cd" x="0" y="14.73" width="380" height="139.63" filterUnits="userSpaceOnUse" color-interpolation-filters="sRGB"><feFlood flood-color="#fff" result="bg"/><feBlend in="SourceGraphic" in2="bg"/></filter><mask id="c3a6c7c0-1059-4838-9279-1951dbecbedd" x="0" y="14.73" width="380" height="139.63" maskUnits="userSpaceOnUse"><g class="aae1647a-c25c-42f1-aabf-e816ac627e81"><path class="90c28b04-1add-497b-834b-4ef51d959029" d="M0,153.54s32.74-7.08,48.64-35c19-33.38,36.74-38.19,47.12-37.83,20.94.74,40,37.83,59.29,10.16s30.85-53.5,47.13-57.19,48.95,49.81,63.45,64.57,23.25-63.92,40.49-79.32c24.78-22.14,33.24,49.8,45.32,83,14.83,40.75,19.34,49.81,28.4,51.65S0,153.54,0,153.54Z"/></g></mask><radialGradient id="b40d6612-dae9-4289-afb8-e84e715265cf" cx="1935.42" cy="15416.44" r="20.51" gradientTransform="translate(-6027.1 -11176.87) scale(3.26 0.74)" gradientUnits="userSpaceOnUse"><stop offset="0" stop-color="#d6d6d6"/><stop offset="1" stop-color="#fff"/></radialGradient></defs><title>Asset 54</title><g class="4cf4b294-662f-42d0-bdf6-28d46df17fa2"><g id="26c39329-3c07-4bc5-b367-afe3c1e9349b" data-name="Layer 2"><g id="1f74a5b7-9c16-49e7-8e20-83b615e7950e" data-name="Layer 1"><rect class="54b6223b-dbed-415c-8745-b46a7cbf9a91" width="380" height="178.3"/><g class="e7d192fb-909e-4d2e-8cd8-76ca6eb3478b"><path class="e635f2e7-e799-460e-95e1-3505027351aa" d="M0,153.54s32.74-7.08,48.64-35c19-33.38,36.74-38.19,47.12-37.83,20.94.74,40,37.83,59.29,10.16s30.85-53.5,47.13-57.19,48.95,49.81,63.45,64.57,23.25-63.92,40.49-79.32c24.78-22.14,33.24,49.8,45.32,83,14.83,40.75,19.34,49.81,28.4,51.65S0,153.54,0,153.54Z"/></g><path class="8b967cbf-c9e2-4c05-b197-3e1ccd0432dc" d="M308.87,154.73c0-.26,0-.53,0-.8a9.92,9.92,0,0,1,9.92-9.92h.16a9.92,9.92,0,0,1,19.22-1.93,7.91,7.91,0,0,1,7.2,7.41,9.88,9.88,0,0,1,10,5.24"/><rect class="e635f2e7-e799-460e-95e1-3505027351aa" y="153.73" width="380" height="24.56"/><g class="b5ccc840-1f5e-40c9-8465-7184d5d4959c"><path class="e635f2e7-e799-460e-95e1-3505027351aa" d="M366.81,114c-1.55-3.07-4.42-.33-6.62-.15-2.43.21-1.73-1.43-1.29-3.88s3.72-3.07,6.81-6.13-.67-9-3.53-8.59-2.43,3.17-4.42,3.27c-2.65.14-2.54-1.33-2.43-3.27.24-4.13,1.55-7.57.67-10.63a7.66,7.66,0,0,0-4.69-4.46l0,0a4,4,0,0,0-3,0l0,0a7.66,7.66,0,0,0-4.69,4.46c-.88,3.06.43,6.5.67,10.63.11,1.94.22,3.41-2.43,3.27-2-.1-1.54-2.86-4.41-3.27s-6.62,5.52-3.53,8.59,6.36,3.68,6.8,6.13,1.14,4.09-1.29,3.88c-2.2-.18-5.07-2.92-6.62.15s.44,11.89,8.83,13.73c4.72,1,6.64,3.73,8.21,3.49,1.57.24,3.49-2.46,8.21-3.49C366.37,125.89,368.35,117.07,366.81,114Z"/><g class="9d4587e9-39a0-44c8-9c8b-8e2ab1a8d11f"><rect class="217ca6ae-9401-4180-a561-4a354fa67354" x="349.53" y="91.2" width="0.48" height="62.97"/><polygon class="217ca6ae-9401-4180-a561-4a354fa67354" points="349.99 112.11 349.66 111.75 359.36 102.9 359.68 103.25 349.99 112.11"/><rect class="217ca6ae-9401-4180-a561-4a354fa67354" x="348.38" y="122.02" width="11.07" height="0.48" transform="translate(10.1 270.57) rotate(-42.39)"/><polygon class="217ca6ae-9401-4180-a561-4a354fa67354" points="349.55 112.11 349.88 111.75 340.18 102.9 339.86 103.25 349.55 112.11"/><rect class="217ca6ae-9401-4180-a561-4a354fa67354" x="345.39" y="116.72" width="0.48" height="11.07" transform="translate(22.3 295.06) rotate(-47.6)"/></g></g><g class="b4241c5b-0d79-4098-a7d7-9ab5fbde1432"><path class="54b6223b-dbed-415c-8745-b46a7cbf9a91" d="M348.1,87.46c-1.83-3.91-5.23-2.58-7.82-2.34-2.87.26-1-1.83-.53-5s3.39-3.92,7-7.83-.78-11.47-4.17-11-2.87,4-5.21,4.18c-3.14.17-3-1.7-2.87-4.18.28-5.26,1.82-9.64.78-13.55a9.33,9.33,0,0,0-5.53-5.68l-.05-.06a4.53,4.53,0,0,0-3.54,0,.15.15,0,0,0-.05.06,9.35,9.35,0,0,0-5.54,5.68c-1,3.91.51,8.29.79,13.55.13,2.48.26,4.35-2.87,4.18-2.35-.13-1.83-3.65-5.22-4.18s-7.82,7-4.17,11,6.52,4.7,7,7.83,2.35,5.21-.52,5c-2.6-.24-6-1.57-7.82,2.34s.52,14.08,10.43,16.43c5.58,1.32,7.85,1.53,9.7,1.22,1.85.31,4.12.1,9.7-1.22C347.58,101.54,349.92,91.38,348.1,87.46Z"/><g class="9d4587e9-39a0-44c8-9c8b-8e2ab1a8d11f"><rect class="217ca6ae-9401-4180-a561-4a354fa67354" x="327.71" y="55.66" width="0.52" height="98.5"/><polygon class="217ca6ae-9401-4180-a561-4a354fa67354" points="328.2 78.45 327.85 78.06 338.42 68.41 338.77 68.8 328.2 78.45"/><rect class="217ca6ae-9401-4180-a561-4a354fa67354" x="326.45" y="94.78" width="12.06" height="0.52" transform="translate(22.86 249.04) rotate(-42.4)"/><polygon class="217ca6ae-9401-4180-a561-4a354fa67354" points="327.73 78.45 328.08 78.06 317.51 68.41 317.16 68.8 327.73 78.45"/><rect class="217ca6ae-9401-4180-a561-4a354fa67354" x="323.19" y="89.01" width="0.52" height="12.06" transform="translate(35.17 269.83) rotate(-47.6)"/></g></g><path class="8b967cbf-c9e2-4c05-b197-3e1ccd0432dc" d="M19.87,153.73c0-.26,0-.53,0-.8A9.92,9.92,0,0,1,29.75,143h.16a9.92,9.92,0,0,1,19.22-1.93,7.91,7.91,0,0,1,7.2,7.41,9.88,9.88,0,0,1,10,5.24"/><g class="bb7d5c1e-62eb-44a9-ad56-49f4688a33e9"><path class="8b967cbf-c9e2-4c05-b197-3e1ccd0432dc" d="M53.32,93.82c-1.62-3.48-4.65-2.3-7-2.09-2.55.24-.92-1.62-.46-4.4s3-3.48,6.26-7-.69-10.21-3.71-9.75-2.55,3.6-4.64,3.72c-2.79.15-2.66-1.51-2.55-3.72.25-4.68,1.63-8.58.7-12.06A8.32,8.32,0,0,0,37,53.51l0,0a2.83,2.83,0,0,0-1.58-.32,2.81,2.81,0,0,0-1.57.32l-.05,0a8.36,8.36,0,0,0-4.92,5.05c-.93,3.48.45,7.38.7,12.06.11,2.21.23,3.87-2.55,3.72-2.09-.12-1.63-3.25-4.64-3.72s-7,6.27-3.72,9.75,5.8,4.17,6.27,7S27,92,24.46,91.73c-2.31-.21-5.33-1.39-6.95,2.09s.46,12.53,9.27,14.61c5,1.18,7,1.36,8.63,1.09,1.65.27,3.67.09,8.64-1.09C52.86,106.35,55,97.3,53.32,93.82Z"/><g class="9d4587e9-39a0-44c8-9c8b-8e2ab1a8d11f"><rect class="217ca6ae-9401-4180-a561-4a354fa67354" x="35.18" y="65.52" width="0.46" height="87.64"/><polygon class="217ca6ae-9401-4180-a561-4a354fa67354" points="35.62 85.8 35.31 85.45 44.72 76.87 45.03 77.21 35.62 85.8"/><rect class="217ca6ae-9401-4180-a561-4a354fa67354" x="34.06" y="100.33" width="10.73" height="0.46" transform="translate(-57.5 52.89) rotate(-42.4)"/><polygon class="217ca6ae-9401-4180-a561-4a354fa67354" points="35.2 85.8 35.52 85.45 26.11 76.87 25.8 77.21 35.2 85.8"/><rect class="217ca6ae-9401-4180-a561-4a354fa67354" x="31.17" y="95.2" width="0.46" height="10.73" transform="translate(-64.04 55.95) rotate(-47.6)"/></g></g><path class="632d0491-25cd-4f0a-a6a3-7ac119c144bb" d="M276.08,143.12l-4.95,9.25a.72.72,0,0,1-1,.29h0a.72.72,0,0,1-.3-1l4.94-9.25a.73.73,0,0,1,1-.3h0A.74.74,0,0,1,276.08,143.12Z"/><path class="acbda65f-8808-4c71-adbe-4d5983703f4c" d="M263.11,133.23l1.35,1.65,5.28,2.68a5.85,5.85,0,0,0,2.53-1.45,1.65,1.65,0,0,0-.15-2.2s-2.93-3.15-5.36-4A6.91,6.91,0,0,0,263.11,133.23Z"/><path class="f9726759-5186-41b2-a781-9add2ba007ca" d="M275.14,134.62l.46-.27s.73-.28,1.86.55c.27.46-.31,2.31-.9,3a33.18,33.18,0,0,0-1.5,3,39.36,39.36,0,0,1-2.18,4.66c-.86,1.38-2.94,3.33-4,2.24C268.69,146.94,275.14,134.62,275.14,134.62Z"/><path class="179b04eb-4c40-4868-b9b9-7657b9a6ff41" d="M268.75,145s-.22-1-.22-1,0-2.13-.16-3.55a5.37,5.37,0,0,1,1-2.94l1-.53a13,13,0,0,0,1.7-1.68c.22-.44-.48-1.24-.74-1.5.23-.5,1-.66,2.15-.32s1.51,5.68,1.51,5.68-.87,2-1.2,2.61S269.36,145.67,268.75,145Z"/><path class="3e15f637-bcf2-4b4e-9901-a32e6fa2fa97" d="M269,145.2a.43.43,0,0,1-.31-.11h0a4.1,4.1,0,0,1-.24-1.05s-.05-2.17-.15-3.57a5.26,5.26,0,0,1,1-3l0,0,1-.53a13,13,0,0,0,1.67-1.64c.16-.34-.36-1-.73-1.39a.1.1,0,0,1,0-.1c.26-.58,1.09-.71,2.25-.37s1.57,5.54,1.58,5.76a.08.08,0,0,1,0,0c0,.08-.87,2-1.21,2.61s-3.66,3.23-4.82,3.36Z"/><path class="85c3cacb-fa42-4e35-bee2-71f4aca84f49" d="M269.33,139.3s-.19-1.09,0-1.34a9.15,9.15,0,0,1,1.09-1,2.55,2.55,0,0,0-.59,0c-.6,0-1.51.78-1.71.66a8.53,8.53,0,0,0-.88.55l1.12,1.54A1.37,1.37,0,0,0,269.33,139.3Z"/><path class="ec171e82-e8eb-4972-98d4-d528784ad991" d="M272.55,142.87a4.92,4.92,0,0,0-2.05.28c-.46.34-.85.86-1.1.95a1.18,1.18,0,0,1-.92-.23c-.14.61-.61,2.21-.61,2.21s-.55,1.93,1.51.36A12.8,12.8,0,0,0,272.55,142.87Z"/><path class="b96ce9f6-b2f4-45e1-aae4-e47de1360e22" d="M267.87,146.08a.39.39,0,0,0,.47.52c.6-.07,1.45-1.18,2-2,.61-.51,1.17-.55,1.21-.94s-1-.52-1-.52a9.51,9.51,0,0,1,2.4-1.12,3.47,3.47,0,0,0,.92-.24,14.94,14.94,0,0,1-2.33,4.26c-1.3,1.37-2.25,2.29-3.33,1.32A1.25,1.25,0,0,1,267.87,146.08Z"/><path class="b96ce9f6-b2f4-45e1-aae4-e47de1360e22" d="M275,139.18a2.54,2.54,0,0,0,.27-1,8.22,8.22,0,0,1,.39-2c.18-.7.1-1.71-.17-1.87-1.55-.67-2-.81-2-.81a3.29,3.29,0,0,1,.31,1.5C273.77,136,273.57,138,275,139.18Z"/><path class="f9726759-5186-41b2-a781-9add2ba007ca" d="M268.33,140.78s-.11.31.09.28,1.19-.36,1.19-.36.31-.13.44.57a1,1,0,0,1-.45,1.22c-.24,0-1.17.37-1.34-.08a8,8,0,0,1-.31-1.36S268,140.85,268.33,140.78Z"/><path class="f9726759-5186-41b2-a781-9add2ba007ca" d="M268.11,140.48s.06.41,1.86-.07a.78.78,0,0,0,.38-.89c-.05-.4-.14-.87-.67-.68s-1.84.42-1.55-.06l-.3.2Z"/><path class="88b2bf74-01ae-4e50-a2c3-9a11c824a6e2" d="M257.26,122.54s-3.58,3.2-3.43,4.84S264,134.21,264,134.21l2.28-3.64s-1.55-2.67-4-3.26c-.75-.77-1-.5-1-.5s4.47-2.46,4.76-3.66S257.26,122.54,257.26,122.54Z"/><path class="217ca6ae-9401-4180-a561-4a354fa67354" d="M263.8,113.08s1.11,2.65.95,2.93-6.69,4.69-7.49,6.53c2.35,1.8,8.94,3.38,9.61,3a71.69,71.69,0,0,1,3.09-7.2l1.8-8.66-5.84-.13Z"/><path class="88b2bf74-01ae-4e50-a2c3-9a11c824a6e2" d="M238.08,112.41l3.81-.86s4.91-.31,7.61-1.55,6.74,3.17,6.74,3.17-3.52,5-14.16,2.17A11.7,11.7,0,0,0,238.08,112.41Z"/><path class="acbda65f-8808-4c71-adbe-4d5983703f4c" d="M271.76,109.72,267,112.06a23.66,23.66,0,0,0-2.53-.37c-.71-.09-1.6-.19-2.71-.3-16.89,3-21.78-2.74-22.22-5.36s7.71-9.58,7.71-9.58,2.14-.38,3.92-.83l.52-.14c16.1-.07,18.54,3.3,18.54,3.3Z"/><path class="acbda65f-8808-4c71-adbe-4d5983703f4c" d="M269.73,100.46l-5.31,11.23c-.71-.09-1.6-.19-2.71-.3-16.89,3-21.78-2.74-22.22-5.36s7.71-9.58,7.71-9.58,2.14-.38,3.92-.83c4.74,1.78,3.73,3.07,5.45,6C258.58,105,269.73,100.46,269.73,100.46Z"/><path class="61df7dbf-a153-4dcd-91e6-f2a9da884a85" d="M236,112.35l.38-.64s3.9-.08,5.49-.16c1,1.89.86,3.55.19,3.79s-4.61,0-4.61,0Z"/><path class="61df7dbf-a153-4dcd-91e6-f2a9da884a85" d="M256.05,112a6.47,6.47,0,0,0,5-3.44,1.18,1.18,0,0,1,1.38.34s4,2.55,3.51,3-2.34,4.32-6.24,3.8S256.05,112,256.05,112Z"/><rect class="217ca6ae-9401-4180-a561-4a354fa67354" x="100.02" y="83.31" width="3.29" height="18.61" transform="translate(-1.14 1.27) rotate(-0.71)"/><rect class="217ca6ae-9401-4180-a561-4a354fa67354" x="100.08" y="92.62" width="3.29" height="9.3" transform="translate(-1.2 1.27) rotate(-0.71)"/><rect class="217ca6ae-9401-4180-a561-4a354fa67354" x="124.94" y="131.68" width="10.35" height="2.36" transform="translate(-1.64 1.63) rotate(-0.71)"/><path class="217ca6ae-9401-4180-a561-4a354fa67354" d="M144.67,129.56c-3.71,2.2-8.79,1.68-11.15,2.27-4,1.39-12.93,1.64-14.42.89a2.44,2.44,0,0,1-1.14-2.18,2.88,2.88,0,0,1,.17-1.27c.2-.36,3.46-.89,4.72-1.33s9.19-4.7,9.19-4.7a10.37,10.37,0,0,0-1-1.75c-.44-.49.49-.43.49-.43l.49-1s8.47.42,9.59.87c.74.29,1.94,3.13,2.61,5.57A10.49,10.49,0,0,1,144.67,129.56Z"/><path class="f9726759-5186-41b2-a781-9add2ba007ca" d="M144.67,129.56c-3.71,2.2-8.79,1.68-11.15,2.27-4,1.39-12.93,1.64-14.42.89a1.42,1.42,0,0,1-1-1.54,26.18,26.18,0,0,0,10.49-.7c6-1.48,13.76-1.53,15.58-4A10.49,10.49,0,0,1,144.67,129.56Z"/><path class="e4f95833-73ac-4c8b-bfd9-79af60869c52" d="M126.23,115s4.86,6,5.28,6.11c1.27-.72,2.25-.8,2.47-.49s2.53,3.18,2.9,3.17,4.58-.9,4.71-2.81a4.32,4.32,0,0,0-1.12-.44L134.63,111Z"/><path class="217ca6ae-9401-4180-a561-4a354fa67354" d="M86.22,81.23l-7.47.35h0a1,1,0,0,1-.84-1,.87.87,0,0,1,.74-1l7.51-.36Z"/><path class="61df7dbf-a153-4dcd-91e6-f2a9da884a85" d="M93.75,72.53l-1.56.41s-1.77,1.87-2.25,2.35l-.28.68s-6.89,1.42-7,1.66.45,4.76,1,5.23,6.92.3,7.78-.1a7.32,7.32,0,0,0,1.9-1.65l2.36-2.72a11,11,0,0,1,1.37-2C97.51,76.16,96.26,73.33,93.75,72.53Z"/><path class="ec171e82-e8eb-4972-98d4-d528784ad991" d="M120.84,43.07,117,41.14a12.57,12.57,0,0,0-3.24,3.66A45.13,45.13,0,0,0,112.2,50s-4,5.48-4.19,6a4.7,4.7,0,0,0,1,1.62s5.19,5.06,5.83,4.45,6.69-9.71,6.69-9.71Z"/><path class="88b2bf74-01ae-4e50-a2c3-9a11c824a6e2" d="M92.19,72.94a5.07,5.07,0,0,1,4.92,3.47C102.4,73,108.5,70,110.72,66c3.64-3.57,4.11-3.88,4.11-3.88s-2.12-5.61-6.18-6.08a40.92,40.92,0,0,1-3.84,4.85s-3.73,2.08-5.3,3.15S93.23,71.81,92.19,72.94Z"/><path class="217ca6ae-9401-4180-a561-4a354fa67354" d="M116.44,80.24,91.05,81.43h0c-.35,0-.66-.44-.69-1s.25-1,.61-1h0l25.38-1.2Z"/><rect class="6c1dba78-fb46-4fd7-b2a4-5de76df2bd36" x="97.98" y="77.88" width="5.19" height="7.03" rx="1.8" ry="1.8" transform="translate(-1 1.25) rotate(-0.71)"/><path class="88b2bf74-01ae-4e50-a2c3-9a11c824a6e2" d="M132.18,92.27l-2.38,2.16s-5.57,1.06-6.12,1.06c2.31.86,6.19,4.15,10.69,15.87-3,2.64-8.14,3.59-8.14,3.59s-13.59-16-14.12-16.91-2.17-3.18-2.22-4.6,1.06-4.29,1.68-4.74,10.69-4.06,12.13-4.6S132.18,92.27,132.18,92.27Z"/><path class="217ca6ae-9401-4180-a561-4a354fa67354" d="M139.45,76.36l-1.19,1.27,0,1L123.7,84.1a18,18,0,0,1,6.1,10.33l6.74-.94s.3-1.08,2.85-3.36,13-10.78,13-10.78S144.59,75.75,139.45,76.36Z"/><rect class="217ca6ae-9401-4180-a561-4a354fa67354" x="156.46" y="88" width="2.83" height="15.06" transform="translate(-1.18 1.97) rotate(-0.71)"/><path class="217ca6ae-9401-4180-a561-4a354fa67354" d="M188,140.76a1.47,1.47,0,0,1-.34,2.05,1.47,1.47,0,0,1-1.71-2.38A1.48,1.48,0,0,1,188,140.76Z"/><path class="217ca6ae-9401-4180-a561-4a354fa67354" d="M186.14,140.2a1.38,1.38,0,1,1-1.4-1.36A1.38,1.38,0,0,1,186.14,140.2Z"/><circle class="217ca6ae-9401-4180-a561-4a354fa67354" cx="182.41" cy="134.59" r="5.5" transform="matrix(0.99, -0.15, 0.15, 0.99, -18.28, 29.19)"/><path class="217ca6ae-9401-4180-a561-4a354fa67354" d="M86.65,106.66a31.69,31.69,0,1,0,34.3,31.2A31.79,31.79,0,0,0,86.65,106.66Zm.78,58.18a26.66,26.66,0,1,1,28.37-29.09A26.74,26.74,0,0,1,87.43,164.84Z"/><path class="217ca6ae-9401-4180-a561-4a354fa67354" d="M206,111.4v.93a33.58,33.58,0,0,0-48.51-.53l-.92-3.38c6.15-5.82,14.92-8.72,24.07-8.84,9.35-.11,18.28,4.26,24.62,10.15A2.34,2.34,0,0,1,206,111.4Z"/><path class="217ca6ae-9401-4180-a561-4a354fa67354" d="M120.45,124c-.3.09-.59.18-.88.29a.82.82,0,0,0-.34.21A33.59,33.59,0,0,0,73,109l.13-.69a1.92,1.92,0,0,1,1.08-1.39,34.91,34.91,0,0,1,46.27,17Z"/><path class="217ca6ae-9401-4180-a561-4a354fa67354" d="M181.92,167a31.69,31.69,0,1,0-32.07-31.29A31.7,31.7,0,0,0,181.92,167Zm1.45-58.28A26.66,26.66,0,1,1,155,137.81,26.75,26.75,0,0,1,183.37,108.73Z"/><path class="632d0491-25cd-4f0a-a6a3-7ac119c144bb" d="M91.12,138.22a2.75,2.75,0,1,1-2.79-2.71A2.76,2.76,0,0,1,91.12,138.22Z"/><polygon class="3e15f637-bcf2-4b4e-9901-a32e6fa2fa97" points="139.31 141.68 142.69 145.41 183.16 136.17 183.13 133.71 156.37 105.11 155.11 108.46 157.01 110.03 180.08 133.46 179.51 134.33 139.31 141.68"/><path class="3e15f637-bcf2-4b4e-9901-a32e6fa2fa97" d="M103.6,96.79h0a.77.77,0,0,0-.79-.77l-2.84,0-.11.86-.07.35L88.2,136.11a.76.76,0,0,0,.15.75c.53.62.81.7,1.68.23a.65.65,0,0,0,.28-.35c1-2.76,7.44-20.86,10.82-31a2,2,0,0,1,3.37-.63l32.38,39.67a1.94,1.94,0,0,0,1.54.72l2.92,0a2,2,0,0,0,1.82-1.29L158,103.53a.76.76,0,0,1,.76-.51h.55a1.18,1.18,0,0,0,1.18-1.19l0-2.55a.79.79,0,0,0-.78-.77l-55.34-.94A.79.79,0,0,1,103.6,96.79Zm36.19,38-2.46,0a2,2,0,0,1-1.45-.61l-28.47-30a2,2,0,0,1,1.5-3.31l41.84,1.72a2,2,0,0,1,1.75,2.67l-10.91,28.2A2,2,0,0,1,139.79,134.81Z"/><path class="217ca6ae-9401-4180-a561-4a354fa67354" d="M146.71,140.54a6.7,6.7,0,1,1-6.78-6.61A6.7,6.7,0,0,1,146.71,140.54Z"/><rect class="217ca6ae-9401-4180-a561-4a354fa67354" x="140.02" y="143.8" width="46.88" height="0.89" transform="translate(-9.84 11.98) rotate(-4.07)"/><rect class="217ca6ae-9401-4180-a561-4a354fa67354" x="139.9" y="133.48" width="37.47" height="0.89" transform="translate(-9.57 12.24) rotate(-4.29)"/><path class="3e15f637-bcf2-4b4e-9901-a32e6fa2fa97" d="M145.31,140.55a5.3,5.3,0,1,1-5.36-5.22A5.3,5.3,0,0,1,145.31,140.55Z"/><path class="217ca6ae-9401-4180-a561-4a354fa67354" d="M143.76,140.57a3.75,3.75,0,1,1-3.79-3.69A3.75,3.75,0,0,1,143.76,140.57Z"/><path class="88b2bf74-01ae-4e50-a2c3-9a11c824a6e2" d="M247.81,98c-1.07,1.18-1.56,3.36-1.79,4.84-.14.92-.18,1.58-.18,1.58a7.5,7.5,0,0,0-4.4.09c-4,1.66-6.57,1.83-8.29,1.39a4.17,4.17,0,0,1-3.24-3.1,12.56,12.56,0,0,0-.41-2.59c-2.11-.26-1.37-2.38-1.37-2.38a4.55,4.55,0,0,0,1.53-.35c1.8-.86.87-4.1.87-4.1l9.76-2.92A68.65,68.65,0,0,1,247.81,98Z"/><path class="217ca6ae-9401-4180-a561-4a354fa67354" d="M238.73,93.79a21.22,21.22,0,0,1,.51,4.26l1.55,0s1.12-3,3.23-2.84a1.65,1.65,0,0,1,1.67,2.07s1,1.22,2.12.69a8.15,8.15,0,0,0,1.48-5.08Z"/><path class="3e15f637-bcf2-4b4e-9901-a32e6fa2fa97" d="M228.63,94.7l-1-.41a10.26,10.26,0,0,1,.91-6.77,11.55,11.55,0,0,1,14.9-4.65A15.52,15.52,0,0,1,251,94.38C245,94.32,228.63,94.7,228.63,94.7Z"/><path class="217ca6ae-9401-4180-a561-4a354fa67354" d="M230.62,94.37l-.8-.32a8.16,8.16,0,0,1,.73-5.39A9.19,9.19,0,0,1,242.41,85a12.32,12.32,0,0,1,6,9.17C243.62,94.07,230.62,94.37,230.62,94.37Z"/><path class="3e15f637-bcf2-4b4e-9901-a32e6fa2fa97" d="M231.51,94.36l-.68-.28a6.92,6.92,0,0,1,.62-4.59,7.83,7.83,0,0,1,10.1-3.15,10.49,10.49,0,0,1,5.12,7.8C242.58,94.11,231.51,94.36,231.51,94.36Z"/><path class="217ca6ae-9401-4180-a561-4a354fa67354" d="M227.64,94.91s18.47-.06,23.43-.06l-.08-.47s-19.62-.21-23.36-.09Z"/><path class="217ca6ae-9401-4180-a561-4a354fa67354" d="M240.15,94.75s-2.55,9.8-4.2,12.26c.24.61,1.66.28,2.06-.2.7-.85,1.71-4.19,3.67-12.08Z"/><path class="61df7dbf-a153-4dcd-91e6-f2a9da884a85" d="M126.63,72.12l-2.44.08-5.82,3s-4.75.58-5.25.8c-.49.71-.38,5.7.66,6.55s6.13.6,7.23-.09,3.2-.89,3.28-2.48,4.55-3.57,4.55-3.57Z"/><path class="217ca6ae-9401-4180-a561-4a354fa67354" d="M171.69,87.24c0,.13,0,.25,0,.36-.09,2.17-1.31,1.73-1.31,1.73l-28.16.35c-1.41,0-1.44-.44-.58-1.79l.33-.51c1.18-1.74,18-2,23.51-3S171.66,84.64,171.69,87.24Z"/><path class="07668ec1-b66f-4cfc-af56-a796d39bf8a7" d="M171.69,87.24c0,.13,0,.25,0,.36a.81.81,0,0,1-.81.2l-28.16.35c-.59,0-.94-.07-1.08-.26l.33-.51c1.18-1.74,18-2,23.51-3S171.66,84.64,171.69,87.24Z"/><path class="e4f95833-73ac-4c8b-bfd9-79af60869c52" d="M148.59,124s5.06,5,5.48,5.66,4.72,2.19,4.72,2.19,5.79-3.17,3.43-6l-1.38-.78-6-7.61Z"/><path class="88b2bf74-01ae-4e50-a2c3-9a11c824a6e2" d="M137.86,91.12s-8.27,13.88-7.66,15.34,3.56,4.36,3.56,4.36L148.59,124a11.65,11.65,0,0,0,6.23-6.56c-8.06-10.89-9-11.9-10.84-12.91a91.6,91.6,0,0,0,8.63-10.38Z"/><path class="217ca6ae-9401-4180-a561-4a354fa67354" d="M164.91,71.64l1.49,2.83s1.76,6.63-.6,9.78L162.35,86s-13.09,12.92-14.14,14.29c-.71-2-6.26-8.68-10.35-9.12a87.91,87.91,0,0,1,12.37-12.81Z"/><path class="f9726759-5186-41b2-a781-9add2ba007ca" d="M161,76.23l-1.09,3.11s-10.85,7.46-16,15.31l1.4,1.16S153,86.26,161,80.61c1.64-1.48,1.94-5,1.94-5Z"/><path class="217ca6ae-9401-4180-a561-4a354fa67354" d="M126.93,77.08l0,2.9-4.82.19A1.32,1.32,0,0,1,121,78.75a1.34,1.34,0,0,1,1.15-1.47Z"/><path class="ec171e82-e8eb-4972-98d4-d528784ad991" d="M118.38,41.38,117,41.14a38.13,38.13,0,0,0,2,12.59c-.62,2.23-4.26,6.94-4.26,6.94l0,1.48s6.41-6.15,8-7.93S118.38,41.38,118.38,41.38Z"/><path class="b96ce9f6-b2f4-45e1-aae4-e47de1360e22" d="M130.72,33.94s2.14-1.32,8,.08S149.87,37.2,152.82,42l.8,1.57s9.7,14.76,11.5,24.18c1.27,2.54,1.28,6.76,1.28,6.76s-5.25,4-8.19,3.9-19.67-11-19.67-11l-19.61-25S126.4,35.67,130.72,33.94Z"/><path class="b96ce9f6-b2f4-45e1-aae4-e47de1360e22" d="M159.85,77.67a12.72,12.72,0,0,1-4.18,1.3c-6.75,1.15-17.27-1-17.8-1.24-.68-.32-.74-2.23-1.52-5.33a2.19,2.19,0,0,0-.11-.4c-1.08-3.39-6.06-11.47-8.49-13C117.24,54.39,117,41.32,117,41.14l4.29-3.43a80.32,80.32,0,0,1,11.38,2.8c4.16,1.56,13.19,7.56,17.94,15a78.5,78.5,0,0,1,7.48,16.13s-.68.57-1.39,1.24l-.19.19a12.39,12.39,0,0,0-1.21,1.27c-.73,1,3,.08,3.44,0-.4.2-3.74,1.84-3.52,2.37s3.85,0,3.85,0S159.81,77.11,159.85,77.67Z"/><path class="ec171e82-e8eb-4972-98d4-d528784ad991" d="M141,53.12l-.77-6.06s-1.65-3.36-.08-6S144.5,37,147.25,38s4.94,2.74,4.72,6.45a15.37,15.37,0,0,1-.78,4.88s.71,6.94.09,7.42S141,53.12,141,53.12Z"/><path class="ec171e82-e8eb-4972-98d4-d528784ad991" d="M149.88,49.53l1.31-.25s.35,5,.2,6.42c-.16,1-.53.67-.53.67l-.28,1.2s1.4,0,1.39-.67.54-7.83.54-7.83a14.85,14.85,0,0,0-.65-6.38C152.23,44.86,151.75,48.42,149.88,49.53Z"/><path class="ec171e82-e8eb-4972-98d4-d528784ad991" d="M141.54,53.53s.31-4.42.87-5.22a8.34,8.34,0,0,1-2.28-7.2,9.77,9.77,0,0,0-.08,7.4c.16,2.69,0,5.88.76,5.45Z"/><path class="88b2bf74-01ae-4e50-a2c3-9a11c824a6e2" d="M127.26,70.86A8.87,8.87,0,0,1,130.4,76c9.79-1.77,16.71-7,18-8.79l.13-1,2.29-9.87s-2.64-6.65-9.88-3.25c-.43,2-1.13,6.32-.72,8.94l-.06.68a23.44,23.44,0,0,0-4.7,2.68C132.52,67.49,129.46,70.08,127.26,70.86Z"/><path class="88b2bf74-01ae-4e50-a2c3-9a11c824a6e2" d="M147,98.16s-4.21,5-8.65,6.41c4.46.57,8.76,2.67,10.09,4.38a10.46,10.46,0,0,0-4.43-4.42l4.23-4.29S147.32,98.62,147,98.16Z"/><path class="88b2bf74-01ae-4e50-a2c3-9a11c824a6e2" d="M136.49,35.48c-3.58,3.15-7,13.37-8.46,14.91-1,1.11-2-.1-2.87-2.64a32.18,32.18,0,0,1-.93-3.53,52.74,52.74,0,0,1-5.31-4.93c-1.08-1.16-1.7-1.92-1.7-1.92s6.58-17,10.92-10.6,7.33,7.29,7.33,7.29S137.23,34.54,136.49,35.48Z"/><path class="db73faab-1f3d-4b5b-9d5d-c6e44aba5045" d="M112,30.93l0,2.35s-2,1.07,1,3.48,4,1.19,4.23.61c3.09,3,7.21,6,9,5.88s4.51-.59,6.2-2.74c.36-2.81-.08-9.6-2.54-14.21C126.52,21.89,112,30.93,112,30.93Z"/><path class="217ca6ae-9401-4180-a561-4a354fa67354" d="M110.28,30.66,112,33.28s2.37-.72,4.53,2l.94.47-2.8-5Z"/><path class="217ca6ae-9401-4180-a561-4a354fa67354" d="M124.19,72.2s1.61-.09,2.69,2.11.88,2.76.88,2.76-.16.64,1.16.34,1.69-.5,1.48-1.41-.57-3.65-3.14-5.14l-.55-.28S124.06,71.58,124.19,72.2Z"/><polygon class="217ca6ae-9401-4180-a561-4a354fa67354" points="117.22 37.38 118.73 36.88 120.1 37.99 117.23 38.37 116.65 38.04 117.22 37.38"/><path class="217ca6ae-9401-4180-a561-4a354fa67354" d="M132.72,40.51s-.77,2.51-4.82,3a5.06,5.06,0,0,1-2.39,0c-1-.43-8.65-6-11.76-11.43.43-.49,1.67,0,1.67,0a29.91,29.91,0,0,0,11,10.74,7.75,7.75,0,0,0,3.89-1.07l.09-.06,1.26-.8h0l.46-.35c.46-4.79-1-9.61-1.48-10.34A24.51,24.51,0,0,0,130,27s.52-.26.77.81C133,35.11,133.05,38.63,132.72,40.51Z"/><path class="1db1589a-33d4-4162-8ac4-dd3e06153d40" d="M130.44,28.23A14.65,14.65,0,0,0,132,26.58c.29-.48-2.07-5.4-6.16-8.34s-9.44-3.81-11.39-2.46S130.44,28.23,130.44,28.23Z"/><path class="1db1589a-33d4-4162-8ac4-dd3e06153d40" d="M123.78,32.25a9.58,9.58,0,0,1-3.32,1c-1.62.11-7.86-.35-11.89-2.88-1.1-2.29-2.56-7.67-1.24-9.3.43-.72.9-1.48.9-1.48s1.19-2.84,6.13-4c3.75-.39,12.54,3.3,16.29,13.11,0,.39-5.12,3.47-5.12,3.47Z"/><path class="ec171e82-e8eb-4972-98d4-d528784ad991" d="M123.78,32.25l1.75,0S119.62,23.69,115.06,21c-4.38-2.42-8-2.12-7.76.27.29-.56,2.92-2.26,7.14.63S122.22,29.74,123.78,32.25Z"/><path class="07668ec1-b66f-4cfc-af56-a796d39bf8a7" d="M128.13,78.52a1.2,1.2,0,1,1-1.2-1.44A1.35,1.35,0,0,1,128.13,78.52Z"/><path class="632d0491-25cd-4f0a-a6a3-7ac119c144bb" d="M261.3,156.84l-5-1.94a.72.72,0,0,1-.41-.94h0a.72.72,0,0,1,.94-.41l5,1.93a.73.73,0,0,1,.41.94h0A.72.72,0,0,1,261.3,156.84Z"/><rect class="217ca6ae-9401-4180-a561-4a354fa67354" x="245.27" y="116.44" width="2.1" height="11.9" transform="translate(-1.5 3.06) rotate(-0.71)"/><rect class="632d0491-25cd-4f0a-a6a3-7ac119c144bb" x="245.3" y="122.39" width="2.1" height="5.95" transform="translate(-1.53 3.06) rotate(-0.71)"/><path class="217ca6ae-9401-4180-a561-4a354fa67354" d="M236.44,115.11l-4.78.22h0a.63.63,0,0,1-.54-.63.56.56,0,0,1,.48-.65l4.8-.23Z"/><path class="61df7dbf-a153-4dcd-91e6-f2a9da884a85" d="M234.3,112.46s-.6,3.26.41,3.85,5.38.83,5.75-.48a4.43,4.43,0,0,0-.09-2.49,1.55,1.55,0,0,0-1.56-1.39C237.32,111.82,234.54,111.72,234.3,112.46Z"/><path class="217ca6ae-9401-4180-a561-4a354fa67354" d="M255.77,114.47l-16.24.76h0c-.22,0-.42-.28-.44-.63s.16-.64.39-.64h0l16.24-.77Z"/><rect class="27ae98e4-90b6-4ffc-a46a-ca1f3502f70c" x="243.96" y="112.97" width="3.32" height="4.5" rx="1.44" ry="1.44" transform="translate(-1.45 3.14) rotate(-0.73)"/><rect class="632d0491-25cd-4f0a-a6a3-7ac119c144bb" x="281.37" y="119.44" width="1.81" height="9.63" transform="translate(-1.52 3.52) rotate(-0.71)"/><path class="632d0491-25cd-4f0a-a6a3-7ac119c144bb" d="M301.56,153.19a.94.94,0,1,1-1.31-.22A.94.94,0,0,1,301.56,153.19Z"/><path class="632d0491-25cd-4f0a-a6a3-7ac119c144bb" d="M300.35,152.83a.89.89,0,0,1-1.77,0,.89.89,0,1,1,1.77,0Z"/><path class="632d0491-25cd-4f0a-a6a3-7ac119c144bb" d="M301.49,149.19a3.52,3.52,0,1,1-3.57-3.48A3.53,3.53,0,0,1,301.49,149.19Z"/><path class="217ca6ae-9401-4180-a561-4a354fa67354" d="M236.72,131.37a20.27,20.27,0,1,0,21.93,20A20.35,20.35,0,0,0,236.72,131.37Zm.49,37.22A17.05,17.05,0,1,1,255.36,150,17.1,17.1,0,0,1,237.21,168.59Z"/><path class="ec171e82-e8eb-4972-98d4-d528784ad991" d="M236.94,134A17.62,17.62,0,1,0,256,151.36,17.67,17.67,0,0,0,236.94,134Zm.34,33.59a16.07,16.07,0,1,1,17.11-17.54A16.13,16.13,0,0,1,237.28,167.61Z"/><path class="217ca6ae-9401-4180-a561-4a354fa67354" d="M296.32,130.63a20.27,20.27,0,1,0,21.94,20A20.35,20.35,0,0,0,296.32,130.63Zm.5,37.21A17,17,0,1,1,315,149.24,17.09,17.09,0,0,1,296.82,167.84Z"/><path class="ec171e82-e8eb-4972-98d4-d528784ad991" d="M296.54,133.28a17.62,17.62,0,1,0,19.06,17.34A17.66,17.66,0,0,0,296.54,133.28Zm.34,33.59A16.07,16.07,0,1,1,314,149.33,16.12,16.12,0,0,1,296.88,166.87Z"/><path class="217ca6ae-9401-4180-a561-4a354fa67354" d="M313.08,134.4v.6a21.48,21.48,0,0,0-31-.34l-.59-2.16c3.93-3.73,9.54-5.58,15.4-5.65a23.32,23.32,0,0,1,15.74,6.49A1.47,1.47,0,0,1,313.08,134.4Z"/><path class="217ca6ae-9401-4180-a561-4a354fa67354" d="M258.34,142.43l-.57.19a.54.54,0,0,0-.22.13A21.46,21.46,0,0,0,228,132.88l.08-.45a1.25,1.25,0,0,1,.69-.89,22.35,22.35,0,0,1,29.6,10.89Z"/><path class="632d0491-25cd-4f0a-a6a3-7ac119c144bb" d="M239.57,151.56a1.76,1.76,0,1,1-1.78-1.74A1.75,1.75,0,0,1,239.57,151.56Z"/><polygon class="1db1589a-33d4-4162-8ac4-dd3e06153d40" points="270.4 153.77 272.56 156.16 298.44 150.25 298.42 148.67 281.31 130.38 280.5 132.52 281.72 133.53 296.48 148.51 296.11 149.07 270.4 153.77"/><path class="1db1589a-33d4-4162-8ac4-dd3e06153d40" d="M247.56,125.06h0a.49.49,0,0,0-.51-.49l-1.82,0-.06.55,0,.22-7.42,24.85a.53.53,0,0,0,.1.48c.34.39.52.45,1.08.15a.44.44,0,0,0,.17-.23c.67-1.77,4.76-13.34,6.93-19.85a1.24,1.24,0,0,1,2.15-.4l20.71,25.37a1.23,1.23,0,0,0,1,.46l1.87,0a1.27,1.27,0,0,0,1.16-.82l9.51-26a.51.51,0,0,1,.5-.33h.34a.75.75,0,0,0,.76-.76l0-1.63a.5.5,0,0,0-.49-.49l-35.41-.6A.51.51,0,0,1,247.56,125.06Zm23.14,24.32-1.57,0a1.27,1.27,0,0,1-.92-.39L250,129.84a1.26,1.26,0,0,1,1-2.12l26.76,1.11a1.25,1.25,0,0,1,1.12,1.7l-7,18A1.26,1.26,0,0,1,270.7,149.38Z"/><path class="632d0491-25cd-4f0a-a6a3-7ac119c144bb" d="M275.13,153a4.28,4.28,0,1,1-4.33-4.23A4.28,4.28,0,0,1,275.13,153Z"/><rect class="632d0491-25cd-4f0a-a6a3-7ac119c144bb" x="270.85" y="154.96" width="29.99" height="0.92" transform="translate(-10.21 20.45) rotate(-4.03)"/><rect class="632d0491-25cd-4f0a-a6a3-7ac119c144bb" x="270.77" y="148.35" width="23.97" height="0.92" transform="translate(-10.44 21.8) rotate(-4.33)"/><circle class="30556522-9ab5-4d23-b803-55a507014a06" cx="270.85" cy="153.09" r="3.38"/><path class="632d0491-25cd-4f0a-a6a3-7ac119c144bb" d="M273.24,153.06a2.39,2.39,0,1,1-2.42-2.36A2.4,2.4,0,0,1,273.24,153.06Z"/><path class="632d0491-25cd-4f0a-a6a3-7ac119c144bb" d="M291.11,119a1.69,1.69,0,0,1,0,.23c-.06,1.39-.83,1.11-.83,1.11l-18,.22c-.9,0-.92-.28-.37-1.15.06-.09.14-.2.21-.32.76-1.11,11.52-1.28,15-1.9S291.09,117.29,291.11,119Z"/><path class="07668ec1-b66f-4cfc-af56-a796d39bf8a7" d="M291.11,119a1.69,1.69,0,0,1,0,.23.53.53,0,0,1-.52.13l-18,.22c-.37,0-.6,0-.69-.17.06-.09.14-.2.21-.32.76-1.11,11.52-1.28,15-1.9S291.09,117.29,291.11,119Z"/><path class="77343f4a-aae4-47e2-ac23-5be653b5b761" d="M159,140.63l-16.12,1.49c-.45,0-1.18-1.64-1.19-2.09h0a.83.83,0,0,1,.81-.83L159,139a.8.8,0,0,1,.82.81h0A.8.8,0,0,1,159,140.63Z"/><rect class="217ca6ae-9401-4180-a561-4a354fa67354" x="154.63" y="139.44" width="10.35" height="2.36" transform="translate(-42.43 74.19) rotate(-23.16)"/><path class="217ca6ae-9401-4180-a561-4a354fa67354" d="M168.51,135.89a63,63,0,0,1-6.47,2.82c-2.48,1-13.2,7.45-15,7.6-1.63.12-4-1.48-3.45-2.8a1.29,1.29,0,0,1,.36-.48,52.64,52.64,0,0,0,7-7.05c3-3.85,3.12-6.32,3.12-6.32a4.38,4.38,0,0,1,4.55.76c1.77.46,4.33-2.93,3.54-4.79.87-.55,4.63,2.66,6.31,6.32.15.3.3.58.42.83C169.65,134.34,169.78,135.15,168.51,135.89Z"/><path class="0a66c476-7d03-4b73-b43a-3b0018b88b63" d="M117.87,31.5A19.35,19.35,0,0,0,115,28a19.2,19.2,0,0,1,1.45,3.44A3,3,0,0,0,117.87,31.5Z"/><path class="0a66c476-7d03-4b73-b43a-3b0018b88b63" d="M114.42,25.83a27.21,27.21,0,0,1,4.89,5.55,3.55,3.55,0,0,0,2-.05A12.1,12.1,0,0,0,114.42,25.83Z"/><path class="61df7dbf-a153-4dcd-91e6-f2a9da884a85" d="M252.69,111.26s-.55,4.35.59,5.32c.45.38,5.91.81,6.69-.09a3.84,3.84,0,0,0,.77-2.26s-1-.33-1.46,0c-.36-.66,1.26-1,1.08-1.46s-.26-1.87-1.46-2.1S253.07,110.39,252.69,111.26Z"/><path class="217ca6ae-9401-4180-a561-4a354fa67354" d="M262.48,112.45l0,1.86-3.08.12a.95.95,0,0,1,0-1.85Z"/><path class="07668ec1-b66f-4cfc-af56-a796d39bf8a7" d="M263.24,113.37a.86.86,0,0,1-.74.94.86.86,0,0,1-.76-.92.85.85,0,0,1,.74-.93A.83.83,0,0,1,263.24,113.37Z"/><path class="acbda65f-8808-4c71-adbe-4d5983703f4c" d="M264.5,140.22l-.86.68-2.38,6.88a6.09,6.09,0,0,0,1.93,2.34c1.24.78,2.23-.56,2.23-.56s2.7-3.56,3.12-6.2A7.16,7.16,0,0,0,264.5,140.22Z"/><path class="88b2bf74-01ae-4e50-a2c3-9a11c824a6e2" d="M269.41,113.26s-3.92,16.09-4.27,19a11,11,0,0,1-.52,3.34l-1,5.34s.13.4,2.07,1.38a9.94,9.94,0,0,0,2.83,1.08s3.82-7.45,3.87-11.86c.74-2.17,4.87-16,4.87-16Z"/><path class="217ca6ae-9401-4180-a561-4a354fa67354" d="M268.22,107.65S267,110,266,111.82a11.27,11.27,0,0,1,2.27,1.49l-1.16,7.29c2.52.72,9.56,1.62,9.91,1.69s1.22-3.65,2.59-6.52,2.84-6.19,1.58-9.89-3.6-5.59-8.31-5.45S268.22,107.65,268.22,107.65Z"/><path class="88b2bf74-01ae-4e50-a2c3-9a11c824a6e2" d="M261.69,109.15s4-5.15,4.74-6.09l-3.31.68A23.63,23.63,0,0,0,261.88,98c5-1,9.95-.87,10.7-.13a8.38,8.38,0,0,1,1.28,3s-2.73,7.28-9,10.51Z"/><path class="27ae98e4-90b6-4ffc-a46a-ca1f3502f70c" d="M261.54,97.33a13.9,13.9,0,0,1,1.59,7c-7.75,1.8-10.85,2.07-10.83-3C252.16,96.72,257.48,97.25,261.54,97.33Z"/><path class="632d0491-25cd-4f0a-a6a3-7ac119c144bb" d="M270.22,152.63l-9.44,4.59a.73.73,0,0,1-1-.34h0a.73.73,0,0,1,.34-1l9.43-4.59a.73.73,0,0,1,1,.34h0A.72.72,0,0,1,270.22,152.63Z"/><path class="f9726759-5186-41b2-a781-9add2ba007ca" d="M168.51,135.89a63,63,0,0,1-6.47,2.82c-2.48,1-13.2,7.45-15,7.6-1.63.12-4-1.48-3.45-2.8a7.05,7.05,0,0,0,4.68.51c2.77-.77,10.25-6.21,12.22-7,1.72-.66,6.69-2.4,8.45-4.28C169.65,134.34,169.78,135.15,168.51,135.89Z"/><path class="f9726759-5186-41b2-a781-9add2ba007ca" d="M264.87,153.12l.28.45a2.09,2.09,0,0,1-.48,1.88c-.45.29-2.32-.23-3.06-.78a33,33,0,0,0-3-1.4,37.1,37.1,0,0,1-4.73-2c-1.41-.81-3.45-2.82-2.4-3.91C252.32,147.13,264.87,153.12,264.87,153.12Z"/><path class="3e15f637-bcf2-4b4e-9901-a32e6fa2fa97" d="M254.23,147.12s1-.26,1-.26,2.13-.12,3.55-.28a5.32,5.32,0,0,1,3,.88l.57,1a13.18,13.18,0,0,0,1.74,1.64c.45.19,1.22-.53,1.47-.8.51.21.69,1,.39,2.14s-5.61,1.72-5.61,1.72-2.07-.8-2.65-1.11S253.62,147.75,254.23,147.12Z"/><path class="ec171e82-e8eb-4972-98d4-d528784ad991" d="M260,147.49s1.08-.23,1.34-.07a8.73,8.73,0,0,1,1,1.06,2.64,2.64,0,0,0,0-.6c-.06-.59-.83-1.48-.72-1.68a8.81,8.81,0,0,0-.58-.86l-1.5,1.18A1.39,1.39,0,0,0,260,147.49Z"/><path class="ec171e82-e8eb-4972-98d4-d528784ad991" d="M256.53,150.84a5,5,0,0,0-.35-2c-.36-.45-.9-.82-1-1.07a1.14,1.14,0,0,1,.2-.93c-.62-.11-2.24-.53-2.24-.53s-2-.48-.31,1.52A12.93,12.93,0,0,0,256.53,150.84Z"/><path class="b96ce9f6-b2f4-45e1-aae4-e47de1360e22" d="M253.15,146.28a.39.39,0,0,0-.51.49c.1.6,1.24,1.4,2.07,1.88.53.58.59,1.14,1,1.17s.49-1,.49-1a9.17,9.17,0,0,1,1.2,2.35,3.14,3.14,0,0,0,.28.91,15.06,15.06,0,0,1-4.34-2.17c-1.42-1.25-2.37-2.17-1.45-3.28A1.24,1.24,0,0,1,253.15,146.28Z"/><path class="b96ce9f6-b2f4-45e1-aae4-e47de1360e22" d="M260.31,153.18a2.6,2.6,0,0,0,1,.23,8,8,0,0,1,2,.31c.71.16,1.72,0,1.87-.24.6-1.57.72-2,.72-2a3.27,3.27,0,0,1-1.48.36C263.49,151.81,261.45,151.68,260.31,153.18Z"/><path class="f9726759-5186-41b2-a781-9add2ba007ca" d="M258.46,146.55s-.31-.1-.27.1.4,1.17.4,1.17.14.31-.56.47a1.05,1.05,0,0,1-1.23-.41c-.06-.24-.41-1.16,0-1.35a8.26,8.26,0,0,1,1.35-.35S258.38,146.21,258.46,146.55Z"/><path class="f9726759-5186-41b2-a781-9add2ba007ca" d="M258.75,146.31s-.4.08.15,1.87a.79.79,0,0,0,.89.34c.4-.07.88-.17.66-.69s-.48-1.83,0-1.56l-.21-.28Z"/><path class="07668ec1-b66f-4cfc-af56-a796d39bf8a7" d="M252.7,111.66s5.31-.25,5.15.28c-.41,1.39,0,3.36-.07,4.1,0,.31-4.76-.28-4.76-.28A21.43,21.43,0,0,1,252.7,111.66Z"/><path class="07668ec1-b66f-4cfc-af56-a796d39bf8a7" d="M234.3,112.46s3.92,0,4,.29-.14,1.43,0,2.71c-1,.73-4.14.05-4.14.05A6.73,6.73,0,0,1,234.3,112.46Z"/><path class="0a66c476-7d03-4b73-b43a-3b0018b88b63" d="M107.75,25.2a22,22,0,0,1,3.08,1.35,10.8,10.8,0,0,1-1.68,2.2A24.16,24.16,0,0,1,107.75,25.2Z"/><path class="0a66c476-7d03-4b73-b43a-3b0018b88b63" d="M107.54,23a21.59,21.59,0,0,1,4.15,1.82c-.13.32-.29.67-.46,1a21.5,21.5,0,0,0-3.7-1.56A3.11,3.11,0,0,1,107.54,23Z"/><path class="0a66c476-7d03-4b73-b43a-3b0018b88b63" d="M112.46,22.28A13.91,13.91,0,0,1,112,24a22.07,22.07,0,0,0-3.88-1.72C108.68,22,109.45,21.77,112.46,22.28Z"/><path class="0a66c476-7d03-4b73-b43a-3b0018b88b63" d="M114.45,28.68s.82,2,.6,2.36c-1.15.2-4.22-.94-4.22-.94S113.79,30.13,114.45,28.68Z"/><path class="ec171e82-e8eb-4972-98d4-d528784ad991" d="M111.78,16.75s10.59-3,18.19,12.62l.68-.61s-3.42-11.42-16-13.14A11,11,0,0,0,111.78,16.75Z"/><path class="0a66c476-7d03-4b73-b43a-3b0018b88b63" d="M131.24,25.62l-.61,1.08s-2.52-4.59-5-6.56C129,21.73,131.24,25.62,131.24,25.62Z"/><path class="d21af711-94b6-49ea-bbe0-1a64b1733947" d="M337,153.73c8.38,0,11.83,8,5,11.51C329.46,171.67,306.87,176,281.07,176s-48.38-4.3-60.84-10.73c-6.87-3.54-3.42-11.51,5-11.51Z"/></g></g></g></svg>