<svg xmlns="http://www.w3.org/2000/svg" xmlns:xlink="http://www.w3.org/1999/xlink" viewBox="0 0 381 179.56"><defs><style>.aac2efb2-b1c7-4e48-8dca-0f9e9828bf83{mask:url(#ae423ef6-5341-495a-ac60-d8b7051942fc);filter:url(#e7a65286-13f0-4cf8-9e00-cbbc5aa3eae8);}.\30 567e705-21ca-4c05-b178-7040776be3be,.\31 8c9c786-c6c1-4597-9055-8c4abe9190df,.\33 a93d14d-7ca3-4272-8124-2a17f2cdd21a,.\33 b1ba456-6674-4def-9547-6e09abbf0292,.\34 96e89c0-2ed4-493c-84f3-c6f4ff7c24d2,.\34 a091729-f482-4c15-be71-05ef391a1370,.\34 f43a571-4cc9-459c-8a8b-90fde03b577a,.\35 6bd80eb-ed1e-46a6-b040-fb239f2fe459,.\35 b88d6ea-34df-4e78-af82-a36f80afe6aa,.\39 c04b944-e132-4ca8-a689-2914a39b1da1,.ae20ac50-c4d1-4f56-bc59-4c54a753d877,.b1193226-55a5-4113-8c92-81c55792c91d,.bb5f461b-d62c-43d5-b504-8cc715a95d5c,.cac0808f-6a9e-4c5b-9451-7896823d0281,.cc116aef-c78f-4f6b-96b6-aa767d7f5cfc,.dd6a3cee-831b-4af3-81e9-ca220dfe564e,.df993c3b-28a1-4b07-8f4f-d1bd0057fc2e,.ee18afe6-542a-4700-9697-43bca0197d05,.f3a4bb0e-5716-47d6-9969-033d4b05646b,.fa759dd2-c41e-461a-9328-f76cafd0c102{mix-blend-mode:multiply;}.\34 a091729-f482-4c15-be71-05ef391a1370{fill:url(#ccc84756-ebf6-44dc-b4a9-c86f01205ca0);}.\30 2e69240-1b31-4754-8d50-19cf5246a608{mask:url(#fb121b4c-0d56-4741-b9bf-2b0c2b927316);filter:url(#dde87bbc-8d1e-4a28-bdf1-3409a083a5eb);}.\35 6bd80eb-ed1e-46a6-b040-fb239f2fe459{fill:url(#5d336f12-73f7-4c60-a2dd-e57638735631);}.\36 87ae38d-cfc1-41f8-b06a-76b17e21448a{mask:url(#585b9100-6526-4bf5-81e1-4594cc33e4b3);filter:url(#c6b0850e-95af-445f-917e-70e240d3407f);}.cac0808f-6a9e-4c5b-9451-7896823d0281{fill:url(#fee95611-2664-4d91-90b0-7568aa232181);}.d1408d6c-5b06-4f91-8e2d-b849526b3afe{mask:url(#1bcbb743-9c6d-47e2-86d9-c4dccb5e638f);filter:url(#947aa317-0d38-431a-a475-bbd32eeab3cc);}.fa759dd2-c41e-461a-9328-f76cafd0c102{fill:url(#e666a907-1615-4c7f-9835-bc6406818d5a);}.\34 efa2fa5-ee35-4a83-9ced-d1e389cc8059{mask:url(#e1987871-d0a7-42bf-8a6c-60d1f57b2133);filter:url(#397084dc-23ba-4e97-9fb5-2cf29e7b2e1c);}.\30 567e705-21ca-4c05-b178-7040776be3be{fill:url(#f3142a43-6ae7-409a-b8ca-a199cdfc7eb9);}.f46976a0-142e-4870-826c-dd12e594e77d{mask:url(#05d3e7e3-9462-4fdf-b788-631911fcd599);filter:url(#4b4c173f-20f2-4464-98f1-a0a82dc9fc5c);}.\33 a93d14d-7ca3-4272-8124-2a17f2cdd21a{fill:url(#fa89f28a-7651-47a8-8835-c3129b5310fb);}.e9d4f15f-d26a-465d-81b1-c1f9713d943d{mask:url(#f606b9a0-a48d-4a62-b09b-7b0394b6aa4e);filter:url(#d5e5d8f1-cab7-48c4-a159-3247c565e9b7);}.ee18afe6-542a-4700-9697-43bca0197d05{fill:url(#6aa81990-1a96-4112-9145-94668852c2af);}.\39 ff640a7-5104-4d38-910c-7f27d5db9335{mask:url(#f4d8a2a4-736a-445b-bac6-07d8de85d284);filter:url(#db70c75b-6c06-4917-977e-a37432d0d769);}.\35 b88d6ea-34df-4e78-af82-a36f80afe6aa{fill:url(#a33589f4-640c-4c81-ac48-a81482c8b1c0);}.c36c0ae6-7939-4e45-8b1b-7b9803a1bff8{mask:url(#7f562710-19b4-4c72-b837-7c15a9fd2b51);filter:url(#d554b651-6bc1-4596-8f33-ca35fed4cddf);}.\34 f43a571-4cc9-459c-8a8b-90fde03b577a{fill:url(#34f58ea3-2cbc-4014-ad07-08316feb04e6);}.\36 4c96066-6672-4243-a998-fa9a6b7cd9d6{mask:url(#93f18d54-bf00-4386-9b89-9312b886914a);filter:url(#dd1e25ed-36d4-4aa4-979b-93cadd71a108);}.ae20ac50-c4d1-4f56-bc59-4c54a753d877{fill:url(#f270ec17-2be2-48fe-a8dc-b3aeb61ea1e3);}.d0a7ed79-21ab-40dd-ac6f-fd61aea24304{mask:url(#a62ef60b-5860-435c-b485-f5d4a28fe8a8);filter:url(#b37d3e4d-f99d-4d61-aaa3-b634f8bcfd3e);}.b1193226-55a5-4113-8c92-81c55792c91d{fill:url(#c86fc8e6-6c36-4764-9e6a-5ce64b6e3e18);}.bc560e6e-1918-4feb-b773-576a2cf98ac9{mask:url(#12451072-740f-430c-9feb-d748c0d6b54f);filter:url(#8dcd6b9f-0e22-449e-bb85-371a3ce57ab9);}.dd6a3cee-831b-4af3-81e9-ca220dfe564e{fill:url(#705c5739-f13d-4fc5-8ac0-1fc21fcded11);}.\37 4246d7c-a803-4578-b989-81a872d68bd0{mask:url(#b0078a4b-937c-4517-9dc2-4e48830f25a8);filter:url(#5e731b95-dde3-4c4b-8339-a443a9408ad5);}.\39 c04b944-e132-4ca8-a689-2914a39b1da1{fill:url(#371f176a-531e-48c0-a2af-65c2f6874aec);}.\33 b4c0d4c-d01c-42c9-9f5f-eab29289d866{mask:url(#ca3362c0-1132-4c36-8f7e-ddfc343eed5d);filter:url(#d7712fee-c0e8-40e0-aa3e-b67fc5a8fb4d);}.bb5f461b-d62c-43d5-b504-8cc715a95d5c{fill:url(#82b7bc0b-5e11-4ab9-adc4-24304ea8e701);}.\30 38d6d9e-2949-4f5d-b6d9-5cd0234b483a{mask:url(#18fefe6a-958d-402e-8fd2-6addbd99d143);filter:url(#fe6c62a9-bf60-4fd4-a3a6-3df8bc4d85c2);}.\34 96e89c0-2ed4-493c-84f3-c6f4ff7c24d2{fill:url(#7ba0d8f8-4d96-42d1-8791-aaec8e0843b6);}.eb0b801f-72b6-48e8-86b7-891794282e81{mask:url(#5520ee2a-7b24-4e42-84c5-6ed0df04080f);filter:url(#a5efb202-984c-46ed-a75e-5428f7bd84eb);}.df993c3b-28a1-4b07-8f4f-d1bd0057fc2e{fill:url(#8852956a-029d-4be1-9c50-d4296575a0fa);}.fa577fb7-ce08-4ab9-975b-87f81827e3b5{mask:url(#033a7274-0dbd-4006-91c6-4ab2d997066b);filter:url(#817cd7f1-c73d-4d8b-a275-236111547d2b);}.\31 8c9c786-c6c1-4597-9055-8c4abe9190df{fill:url(#bcc0b877-59c9-4386-9b0e-16a15a0d70cb);}.ee329f8a-719a-4260-8c93-29cfaa61cc1f{mask:url(#ee295ae5-37ac-49d4-8fdd-5e8b2212fa4a);filter:url(#0d2ef7ae-cfa4-4021-934b-39a9eaa077fd);}.\33 b1ba456-6674-4def-9547-6e09abbf0292{fill:url(#01d8afbc-e914-40db-8872-29974919ab6e);}.ee887b00-0bfc-4830-8fde-e1d3d31764e4{mask:url(#88f6090c-7000-451c-b036-3b86ac48e889);filter:url(#8c24930d-d095-41ec-9b66-8239e871860f);}.cc116aef-c78f-4f6b-96b6-aa767d7f5cfc{fill:url(#c38709bd-c2dd-4524-861d-543c98aee23e);}.\32 ce95577-0ecd-4ac1-b9fa-4c70ef65173f{mask:url(#84fc7a91-4d72-493f-a1d2-4949c2b6c9c2);filter:url(#91d31c8b-270a-4f9c-a7fc-026fa1dec3c1);}.f3a4bb0e-5716-47d6-9969-033d4b05646b{fill:url(#5006f340-0eef-4593-9455-0645b3412a80);}.\31 922793a-09bb-46c1-86dd-08a95fc8ad2a{fill:#efefef;}.\37 8376e63-9a7b-439a-b583-e2966171a4e5{fill:#d6d3d3;}.\31 891088b-7d5d-4145-bc05-a33dd4382596{mask:url(#5d55fc02-a398-4e03-a2d4-792ad8a737c9);}.\33 5011639-c334-41d3-9b54-f939a0bfee5c{fill:#cdcdcd;}.\30 0245615-7428-497b-b75f-5b6592c33d91{mask:url(#30385476-bf8c-4db0-955f-3aa28b4da175);}.\32 edfd68f-d88a-4ee9-b021-b2f04195bebd{mask:url(#1f2e4a1d-bb3f-41dc-a7ed-9ebf8f1d2229);}.\35 9faddaf-1c31-4500-a945-79861125c5f7{mask:url(#bf37687b-66fb-4182-8680-0a2805656d4b);}.\37 7e33c24-7d24-42a4-92d9-d8807af2f747{mask:url(#552755cd-7f69-4cf7-9937-bdc8d6252990);}.ed5710d9-3acd-411b-92b8-4fceb0001cc2{mask:url(#d2922ce9-cc75-4662-8b88-307b269de0f0);}.f0f56fe4-f31d-454e-88fa-40e67bc12929{mask:url(#b5b04dda-b06f-40ac-9a3a-72292b9d4458);}.\36 f49ca1b-f9f8-4243-812f-5adf280b9488{mask:url(#bd4ce2d1-d3c6-4d59-90e5-8b7095ee33cb);}.\39 6ea0b79-3e11-4316-8f67-d4394fdbc80c{mask:url(#8c7b6740-5dcc-4425-8138-9178cf691356);}.da7811b5-e2af-4684-bb11-7ec42701c19f{mask:url(#bdc48ebc-78c3-4c53-8502-5f63e4d511a2);}.e83cfd90-f55c-4039-9fbf-219071654fe0{mask:url(#e0eda46c-d242-49e6-881f-b7d4e24e01e2);}.c51af79c-e540-49d9-b004-de3fadf4a893{mask:url(#5709e8bd-c703-46f9-b86b-0acd034ec7fa);}.\33 37e16e8-e1c6-4278-8c16-2a51a2332847{mask:url(#f3aa1caf-fdaa-4119-9a8f-9fb8676b1f10);}.bbdef1dc-177e-4fd4-b4c2-b25aab41632b{mask:url(#23458af0-a515-4b6e-a2e9-f920cc8c95d2);}.d44101b4-e70e-463f-ae87-0059dbfc8b3f{mask:url(#6627aba4-0342-4959-81f3-503a2ec730fb);}.be9447e5-17d8-4f1f-ab3a-a049b46dff81{mask:url(#58467dee-4f22-4371-83f5-4ebbb7e9b3cc);}.f339746d-df49-4e66-b6f6-54c345e2b1f8{mask:url(#0ca71c96-3b53-44e3-8a0b-d9f876f6210d);}.\39 7fd4a9d-8a1a-4d21-b618-c56f33dc0fe4{mask:url(#f3ddf99a-9ee6-49f5-b869-3936bdb79477);}.\34 2485252-4b21-46ce-88c8-cb3e7be93c68{mask:url(#d4f4ae0b-f891-4080-87ed-9dffa6ddbcfc);}.\37 ef48f93-f0d8-4ab9-9209-827cc75d779e{fill:none;}.\30 a253ae2-193b-454c-a180-53b8b4c1a59a{fill:#e6e7e8;}.d0d842c8-6b77-4504-942c-60301dfbe47d{mask:url(#cbf764f5-8c6f-456c-90c6-7c565a5d48f0);}.\39 6c34bf2-c166-45e9-bbd4-14814f14a5a6{fill:#ffcb7b;}.\31 a95058b-5d05-4654-beb2-c46bfc2767b8,.\32 aa8e4b1-e1cd-49fa-9a4c-d89b46aa768e,.\36 c5f0c16-b3ba-439d-b462-39b4c4edd45b,.\37 a6d1869-3555-4b4e-b597-e7170b159eb6,.\39 1dedeac-fb18-4878-af48-356c3ce5e2ea,.\39 6c34bf2-c166-45e9-bbd4-14814f14a5a6,.\39 efacea1-7b5d-465f-8a6b-ab5f9dfa9a41,.d7688cb6-1b42-4fa0-92a7-b79945335475,.d95cc471-36b0-4ed0-960e-8a347ad32cf9,.eaed8f92-f530-4d31-88c5-2030123c0717,.ed24bcae-4098-4da9-9953-25713954d600,.fb2931e0-40e4-49a8-9b82-2b1d543b3a4a,.fc9ebc2f-5b04-49e0-a2bf-546dc62d2b08{fill-rule:evenodd;}.eaed8f92-f530-4d31-88c5-2030123c0717{fill:#f28f20;}.\37 a6d1869-3555-4b4e-b597-e7170b159eb6{fill:#ffd194;}.fb2931e0-40e4-49a8-9b82-2b1d543b3a4a{fill:#fff;}.\31 a95058b-5d05-4654-beb2-c46bfc2767b8{fill:#76a3f1;}.fc9ebc2f-5b04-49e0-a2bf-546dc62d2b08{fill:#0083ee;}.\36 c5f0c16-b3ba-439d-b462-39b4c4edd45b{fill:#0c0c0c;}.ccddd57a-f5b7-44fa-b881-82c75be9361c,.d95cc471-36b0-4ed0-960e-8a347ad32cf9{fill:#333;}.\39 efacea1-7b5d-465f-8a6b-ab5f9dfa9a41{fill:#e2e2e2;}.\32 aa8e4b1-e1cd-49fa-9a4c-d89b46aa768e{fill:#787878;}.ed24bcae-4098-4da9-9953-25713954d600{fill:#2e394c;}.d7688cb6-1b42-4fa0-92a7-b79945335475{fill:#d70000;}.\37 382a3f1-9ec1-4213-b7cf-210081a4d73b{fill:#ffdfaf;}.eb6c8ae7-0182-4cc9-99b3-8066c3e058ba{fill:#e58900;}.\32 98445a3-996c-4ec3-9cf7-d467b9096474{fill:#84d794;}.f6e62faf-000b-4032-91cf-5f045f0e7d4f{fill:#4ac461;}.\34 04a8d9b-93eb-4fb3-8793-05a9327eaf6e{fill:#abe3b5;}.\33 53c044e-cd35-4dcd-aa41-1adeea5a1888{fill:#00a649;}.a81b912f-67bf-4627-9e96-7d1f637786c5{fill:#97dda5;}.b9cbd540-1d94-4e1f-898f-878a61ff34d9{fill:#71d183;}.\31 6041f9c-176f-46d3-9af5-82f0855bc10c{filter:url(#41b657e7-92fd-4ec1-9ea5-46048d7267da);}.\30 afecc46-1428-41ab-840c-fa9c864c950a{filter:url(#75e989f1-a8b3-4323-9a6d-be2e161a5160);}.efc5d569-1eed-4f61-ae47-cf470cb0f743{filter:url(#0d7eb324-f7eb-4d67-964f-81b84c321490);}.\36 81fc896-fd80-428d-acc2-1b1cfc70bbda{filter:url(#0df8d432-a50b-425e-a0e3-48601190841a);}.\31 a97e764-d0a6-4d1c-9959-74ad8f1bccaf{filter:url(#e4f92259-de6e-44d7-9384-c4d2b5101e94);}.\38 91488f5-bc99-4397-a237-f03898b907f5{filter:url(#f65ff5d8-ca5e-4ebe-90a2-ae2efbdbccea);}.\32 c9b4389-4218-4640-a413-11e0c1a63fda{filter:url(#28e9fe27-87fe-4677-a150-1e3fbf910eb8);}.\31 ccaa470-da08-4496-8e42-f71ab14d8309{filter:url(#a993e557-3e12-4a3c-a84d-d619adf08755);}.ad4de465-ee84-43df-865a-11f721d298f2{filter:url(#3892bd0e-b7af-4307-856c-231104c9c742);}.\32 7d7ec7d-8be4-462d-b330-b4aa6da6463a{filter:url(#4266e686-e02a-4b0c-8cfc-ab400ff06721);}.\38 4331031-7197-4a36-8e75-7b16a4dc2853{filter:url(#093837d4-45c4-4838-9bac-ef58106ebe6d);}.\39 9a9d836-f5b1-4849-9820-6c1fa7be12c1{filter:url(#04f7a759-7d8d-4c41-a5dd-46183f294056);}.\35 6bb5db9-eaf6-4e43-ba27-6f159f94046e{filter:url(#a83823fa-8a92-4c6a-949b-400edf2a47ab);}.\39 b020732-7214-4106-bdd3-57dd1fb886b1{filter:url(#9fa1d3a0-1fca-49a0-930d-89595649dd4c);}.ca6c86dc-9606-43b8-8e42-26628f91a67f{filter:url(#c38b69b5-395a-4a05-9c67-dcc42e725d65);}.\31 25fecc1-fa2f-49ed-bf6b-1fb53f9b3c8b{filter:url(#c04689d4-f4f8-40ad-aa4e-5520b3e92ce9);}.f58278c1-2c9e-475f-b924-efd2374a79ca{filter:url(#a9681ed2-c472-461f-b7b5-4b87263b84ed);}.f6b66895-9024-4ef0-ba4e-cd6e2319561b{filter:url(#1a7b6197-ba41-4866-804e-fc4ee20c9731);}.\30 7a6690d-6a69-4486-afb6-053ae84e3722{filter:url(#4389e5f0-35e3-45b3-a526-1e1fcedf44d8);}.\33 25774f7-a12c-4847-b7a3-838983800113{filter:url(#5e2d652e-02ae-48ca-8d94-a36a180e2ffa);}</style><filter id="5e2d652e-02ae-48ca-8d94-a36a180e2ffa" x="1" y="-9431" width="11.89" height="32766" filterUnits="userSpaceOnUse" color-interpolation-filters="sRGB"><feFlood flood-color="#fff" result="bg"/><feBlend in="SourceGraphic" in2="bg"/></filter><mask id="ae423ef6-5341-495a-ac60-d8b7051942fc" x="1" y="-9431" width="11.89" height="32766" maskUnits="userSpaceOnUse"><g class="325774f7-a12c-4847-b7a3-838983800113"/></mask><linearGradient id="ccc84756-ebf6-44dc-b4a9-c86f01205ca0" x1="20.63" y1="208.48" x2="-5.27" y2="82.9" gradientUnits="userSpaceOnUse"><stop offset="0"/><stop offset="1" stop-color="#fff"/></linearGradient><filter id="4389e5f0-35e3-45b3-a526-1e1fcedf44d8" x="102.94" y="-9431" width="11.89" height="32766" filterUnits="userSpaceOnUse" color-interpolation-filters="sRGB"><feFlood flood-color="#fff" result="bg"/><feBlend in="SourceGraphic" in2="bg"/></filter><mask id="fb121b4c-0d56-4741-b9bf-2b0c2b927316" x="102.94" y="-9431" width="11.89" height="32766" maskUnits="userSpaceOnUse"><g class="07a6690d-6a69-4486-afb6-053ae84e3722"/></mask><linearGradient id="5d336f12-73f7-4c60-a2dd-e57638735631" x1="122.63" y1="180.7" x2="100.92" y2="75.4" xlink:href="#ccc84756-ebf6-44dc-b4a9-c86f01205ca0"/><filter id="1a7b6197-ba41-4866-804e-fc4ee20c9731" x="123.32" y="-9431" width="11.89" height="32766" filterUnits="userSpaceOnUse" color-interpolation-filters="sRGB"><feFlood flood-color="#fff" result="bg"/><feBlend in="SourceGraphic" in2="bg"/></filter><mask id="585b9100-6526-4bf5-81e1-4594cc33e4b3" x="123.32" y="-9431" width="11.89" height="32766" maskUnits="userSpaceOnUse"><g class="f6b66895-9024-4ef0-ba4e-cd6e2319561b"/></mask><linearGradient id="fee95611-2664-4d91-90b0-7568aa232181" x1="141.09" y1="177.65" x2="119.35" y2="72.2" xlink:href="#ccc84756-ebf6-44dc-b4a9-c86f01205ca0"/><filter id="a9681ed2-c472-461f-b7b5-4b87263b84ed" x="143.71" y="-9431" width="11.89" height="32766" filterUnits="userSpaceOnUse" color-interpolation-filters="sRGB"><feFlood flood-color="#fff" result="bg"/><feBlend in="SourceGraphic" in2="bg"/></filter><mask id="1bcbb743-9c6d-47e2-86d9-c4dccb5e638f" x="143.71" y="-9431" width="11.89" height="32766" maskUnits="userSpaceOnUse"><g class="f58278c1-2c9e-475f-b924-efd2374a79ca"/></mask><linearGradient id="e666a907-1615-4c7f-9835-bc6406818d5a" x1="161.2" y1="174.19" x2="139.47" y2="68.8" xlink:href="#ccc84756-ebf6-44dc-b4a9-c86f01205ca0"/><filter id="c04689d4-f4f8-40ad-aa4e-5520b3e92ce9" x="164.1" y="-9431" width="11.89" height="32766" filterUnits="userSpaceOnUse" color-interpolation-filters="sRGB"><feFlood flood-color="#fff" result="bg"/><feBlend in="SourceGraphic" in2="bg"/></filter><mask id="e1987871-d0a7-42bf-8a6c-60d1f57b2133" x="164.1" y="-9431" width="11.89" height="32766" maskUnits="userSpaceOnUse"><g class="125fecc1-fa2f-49ed-bf6b-1fb53f9b3c8b"/></mask><linearGradient id="f3142a43-6ae7-409a-b8ca-a199cdfc7eb9" x1="183.37" y1="175.16" x2="157.53" y2="49.85" xlink:href="#ccc84756-ebf6-44dc-b4a9-c86f01205ca0"/><filter id="c38b69b5-395a-4a05-9c67-dcc42e725d65" x="184.48" y="-9431" width="11.89" height="32766" filterUnits="userSpaceOnUse" color-interpolation-filters="sRGB"><feFlood flood-color="#fff" result="bg"/><feBlend in="SourceGraphic" in2="bg"/></filter><mask id="05d3e7e3-9462-4fdf-b788-631911fcd599" x="184.48" y="-9431" width="11.89" height="32766" maskUnits="userSpaceOnUse"><g class="ca6c86dc-9606-43b8-8e42-26628f91a67f"/></mask><linearGradient id="fa89f28a-7651-47a8-8835-c3129b5310fb" x1="202.49" y1="171.26" x2="176.65" y2="45.95" xlink:href="#ccc84756-ebf6-44dc-b4a9-c86f01205ca0"/><filter id="9fa1d3a0-1fca-49a0-930d-89595649dd4c" x="21.39" y="-9431" width="11.89" height="32766" filterUnits="userSpaceOnUse" color-interpolation-filters="sRGB"><feFlood flood-color="#fff" result="bg"/><feBlend in="SourceGraphic" in2="bg"/></filter><mask id="f606b9a0-a48d-4a62-b09b-7b0394b6aa4e" x="21.39" y="-9431" width="11.89" height="32766" maskUnits="userSpaceOnUse"><g class="9b020732-7214-4106-bdd3-57dd1fb886b1"/></mask><linearGradient id="6aa81990-1a96-4112-9145-94668852c2af" x1="42.1" y1="203.99" x2="16.25" y2="78.62" xlink:href="#ccc84756-ebf6-44dc-b4a9-c86f01205ca0"/><filter id="a83823fa-8a92-4c6a-949b-400edf2a47ab" x="204.87" y="-9431" width="11.89" height="32766" filterUnits="userSpaceOnUse" color-interpolation-filters="sRGB"><feFlood flood-color="#fff" result="bg"/><feBlend in="SourceGraphic" in2="bg"/></filter><mask id="f4d8a2a4-736a-445b-bac6-07d8de85d284" x="204.87" y="-9431" width="11.89" height="32766" maskUnits="userSpaceOnUse"><g class="56bb5db9-eaf6-4e43-ba27-6f159f94046e"/></mask><linearGradient id="a33589f4-640c-4c81-ac48-a81482c8b1c0" x1="223.34" y1="167.01" x2="197.5" y2="41.7" xlink:href="#ccc84756-ebf6-44dc-b4a9-c86f01205ca0"/><filter id="04f7a759-7d8d-4c41-a5dd-46183f294056" x="225.26" y="-9431" width="11.89" height="32766" filterUnits="userSpaceOnUse" color-interpolation-filters="sRGB"><feFlood flood-color="#fff" result="bg"/><feBlend in="SourceGraphic" in2="bg"/></filter><mask id="7f562710-19b4-4c72-b837-7c15a9fd2b51" x="225.26" y="-9431" width="11.89" height="32766" maskUnits="userSpaceOnUse"><g class="99a9d836-f5b1-4849-9820-6c1fa7be12c1"/></mask><linearGradient id="34f58ea3-2cbc-4014-ad07-08316feb04e6" x1="244.29" y1="164.17" x2="216.39" y2="28.87" xlink:href="#ccc84756-ebf6-44dc-b4a9-c86f01205ca0"/><filter id="093837d4-45c4-4838-9bac-ef58106ebe6d" x="245.64" y="-9431" width="11.89" height="32766" filterUnits="userSpaceOnUse" color-interpolation-filters="sRGB"><feFlood flood-color="#fff" result="bg"/><feBlend in="SourceGraphic" in2="bg"/></filter><mask id="93f18d54-bf00-4386-9b89-9312b886914a" x="245.64" y="-9431" width="11.89" height="32766" maskUnits="userSpaceOnUse"><g class="84331031-7197-4a36-8e75-7b16a4dc2853"/></mask><linearGradient id="f270ec17-2be2-48fe-a8dc-b3aeb61ea1e3" x1="265.18" y1="159.58" x2="237.27" y2="24.24" xlink:href="#ccc84756-ebf6-44dc-b4a9-c86f01205ca0"/><filter id="4266e686-e02a-4b0c-8cfc-ab400ff06721" x="266.03" y="-9431" width="11.89" height="32766" filterUnits="userSpaceOnUse" color-interpolation-filters="sRGB"><feFlood flood-color="#fff" result="bg"/><feBlend in="SourceGraphic" in2="bg"/></filter><mask id="a62ef60b-5860-435c-b485-f5d4a28fe8a8" x="266.03" y="-9431" width="11.89" height="32766" maskUnits="userSpaceOnUse"><g class="27d7ec7d-8be4-462d-b330-b4aa6da6463a"/></mask><linearGradient id="c86fc8e6-6c36-4764-9e6a-5ce64b6e3e18" x1="282.69" y1="155.68" x2="254.8" y2="20.39" xlink:href="#ccc84756-ebf6-44dc-b4a9-c86f01205ca0"/><filter id="3892bd0e-b7af-4307-856c-231104c9c742" x="286.42" y="-9431" width="11.89" height="32766" filterUnits="userSpaceOnUse" color-interpolation-filters="sRGB"><feFlood flood-color="#fff" result="bg"/><feBlend in="SourceGraphic" in2="bg"/></filter><mask id="12451072-740f-430c-9feb-d748c0d6b54f" x="286.42" y="-9431" width="11.89" height="32766" maskUnits="userSpaceOnUse"><g class="ad4de465-ee84-43df-865a-11f721d298f2"/></mask><linearGradient id="705c5739-f13d-4fc5-8ac0-1fc21fcded11" x1="302.79" y1="150.57" x2="278.09" y2="30.76" xlink:href="#ccc84756-ebf6-44dc-b4a9-c86f01205ca0"/><filter id="a993e557-3e12-4a3c-a84d-d619adf08755" x="306.8" y="-9431" width="11.89" height="32766" filterUnits="userSpaceOnUse" color-interpolation-filters="sRGB"><feFlood flood-color="#fff" result="bg"/><feBlend in="SourceGraphic" in2="bg"/></filter><mask id="b0078a4b-937c-4517-9dc2-4e48830f25a8" x="306.8" y="-9431" width="11.89" height="32766" maskUnits="userSpaceOnUse"><g class="1ccaa470-da08-4496-8e42-f71ab14d8309"/></mask><linearGradient id="371f176a-531e-48c0-a2af-65c2f6874aec" x1="323.44" y1="146.71" x2="295.54" y2="11.38" xlink:href="#ccc84756-ebf6-44dc-b4a9-c86f01205ca0"/><filter id="28e9fe27-87fe-4677-a150-1e3fbf910eb8" x="327.19" y="-9431" width="11.89" height="32766" filterUnits="userSpaceOnUse" color-interpolation-filters="sRGB"><feFlood flood-color="#fff" result="bg"/><feBlend in="SourceGraphic" in2="bg"/></filter><mask id="ca3362c0-1132-4c36-8f7e-ddfc343eed5d" x="327.19" y="-9431" width="11.89" height="32766" maskUnits="userSpaceOnUse"><g class="2c9b4389-4218-4640-a413-11e0c1a63fda"/></mask><linearGradient id="82b7bc0b-5e11-4ab9-adc4-24304ea8e701" x1="340.83" y1="143.75" x2="321.15" y2="48.3" xlink:href="#ccc84756-ebf6-44dc-b4a9-c86f01205ca0"/><filter id="f65ff5d8-ca5e-4ebe-90a2-ae2efbdbccea" x="347.58" y="-9431" width="11.89" height="32766" filterUnits="userSpaceOnUse" color-interpolation-filters="sRGB"><feFlood flood-color="#fff" result="bg"/><feBlend in="SourceGraphic" in2="bg"/></filter><mask id="18fefe6a-958d-402e-8fd2-6addbd99d143" x="347.58" y="-9431" width="11.89" height="32766" maskUnits="userSpaceOnUse"><g class="891488f5-bc99-4397-a237-f03898b907f5"/></mask><linearGradient id="7ba0d8f8-4d96-42d1-8791-aaec8e0843b6" x1="361.72" y1="139.37" x2="337.97" y2="24.19" xlink:href="#ccc84756-ebf6-44dc-b4a9-c86f01205ca0"/><filter id="e4f92259-de6e-44d7-9384-c4d2b5101e94" x="367.96" y="-9431" width="11.89" height="32766" filterUnits="userSpaceOnUse" color-interpolation-filters="sRGB"><feFlood flood-color="#fff" result="bg"/><feBlend in="SourceGraphic" in2="bg"/></filter><mask id="5520ee2a-7b24-4e42-84c5-6ed0df04080f" x="367.96" y="-9431" width="11.89" height="32766" maskUnits="userSpaceOnUse"><g class="1a97e764-d0a6-4d1c-9959-74ad8f1bccaf"/></mask><linearGradient id="8852956a-029d-4be1-9c50-d4296575a0fa" x1="382.48" y1="136.63" x2="361.41" y2="34.44" xlink:href="#ccc84756-ebf6-44dc-b4a9-c86f01205ca0"/><filter id="0df8d432-a50b-425e-a0e3-48601190841a" x="8.9" y="-9431" width="144.1" height="32766" filterUnits="userSpaceOnUse" color-interpolation-filters="sRGB"><feFlood flood-color="#fff" result="bg"/><feBlend in="SourceGraphic" in2="bg"/></filter><mask id="033a7274-0dbd-4006-91c6-4ab2d997066b" x="8.9" y="-9431" width="144.1" height="32766" maskUnits="userSpaceOnUse"><g class="681fc896-fd80-428d-acc2-1b1cfc70bbda"/></mask><linearGradient id="bcc0b877-59c9-4386-9b0e-16a15a0d70cb" x1="-1775.75" y1="169.84" x2="-1633.67" y2="169.84" gradientTransform="matrix(1, 0, -1, 1, 1955.5, 0)" gradientUnits="userSpaceOnUse"><stop offset="0" stop-color="gray"/><stop offset="0.12" stop-color="#9c9c9c"/><stop offset="0.29" stop-color="silver"/><stop offset="0.47" stop-color="#dbdbdb"/><stop offset="0.64" stop-color="#efefef"/><stop offset="0.82" stop-color="#fbfbfb"/><stop offset="1" stop-color="#fff"/></linearGradient><filter id="0d7eb324-f7eb-4d67-964f-81b84c321490" x="41.77" y="-9431" width="11.89" height="32766" filterUnits="userSpaceOnUse" color-interpolation-filters="sRGB"><feFlood flood-color="#fff" result="bg"/><feBlend in="SourceGraphic" in2="bg"/></filter><mask id="ee295ae5-37ac-49d4-8fdd-5e8b2212fa4a" x="41.77" y="-9431" width="11.89" height="32766" maskUnits="userSpaceOnUse"><g class="efc5d569-1eed-4f61-ae47-cf470cb0f743"/></mask><linearGradient id="01d8afbc-e914-40db-8872-29974919ab6e" x1="61.05" y1="200.15" x2="35.19" y2="74.73" xlink:href="#ccc84756-ebf6-44dc-b4a9-c86f01205ca0"/><filter id="75e989f1-a8b3-4323-9a6d-be2e161a5160" x="62.16" y="-9431" width="11.89" height="32766" filterUnits="userSpaceOnUse" color-interpolation-filters="sRGB"><feFlood flood-color="#fff" result="bg"/><feBlend in="SourceGraphic" in2="bg"/></filter><mask id="88f6090c-7000-451c-b036-3b86ac48e889" x="62.16" y="-9431" width="11.89" height="32766" maskUnits="userSpaceOnUse"><g class="0afecc46-1428-41ab-840c-fa9c864c950a"/></mask><linearGradient id="c38709bd-c2dd-4524-861d-543c98aee23e" x1="81.62" y1="187.82" x2="59.87" y2="82.3" xlink:href="#ccc84756-ebf6-44dc-b4a9-c86f01205ca0"/><filter id="41b657e7-92fd-4ec1-9ea5-46048d7267da" x="82.55" y="-9431" width="11.89" height="32766" filterUnits="userSpaceOnUse" color-interpolation-filters="sRGB"><feFlood flood-color="#fff" result="bg"/><feBlend in="SourceGraphic" in2="bg"/></filter><mask id="84fc7a91-4d72-493f-a1d2-4949c2b6c9c2" x="82.55" y="-9431" width="11.89" height="32766" maskUnits="userSpaceOnUse"><g class="16041f9c-176f-46d3-9af5-82f0855bc10c"/></mask><linearGradient id="5006f340-0eef-4593-9455-0645b3412a80" x1="101.96" y1="184.29" x2="80.23" y2="78.88" xlink:href="#ccc84756-ebf6-44dc-b4a9-c86f01205ca0"/><filter id="e7a65286-13f0-4cf8-9e00-cbbc5aa3eae8" x="1" y="137.97" width="11.89" height="8.32" filterUnits="userSpaceOnUse" color-interpolation-filters="sRGB"><feFlood flood-color="#fff" result="bg"/><feBlend in="SourceGraphic" in2="bg"/></filter><mask id="5d55fc02-a398-4e03-a2d4-792ad8a737c9" x="1" y="137.97" width="11.89" height="8.32" maskUnits="userSpaceOnUse"><g class="aac2efb2-b1c7-4e48-8dca-0f9e9828bf83"><rect class="4a091729-f482-4c15-be71-05ef391a1370" x="1" y="137.97" width="11.89" height="8.32"/></g></mask><filter id="d5e5d8f1-cab7-48c4-a159-3247c565e9b7" x="21.39" y="118.4" width="11.89" height="27.89" filterUnits="userSpaceOnUse" color-interpolation-filters="sRGB"><feFlood flood-color="#fff" result="bg"/><feBlend in="SourceGraphic" in2="bg"/></filter><mask id="30385476-bf8c-4db0-955f-3aa28b4da175" x="21.39" y="118.4" width="11.89" height="27.89" maskUnits="userSpaceOnUse"><g class="e9d4f15f-d26a-465d-81b1-c1f9713d943d"><rect class="ee18afe6-542a-4700-9697-43bca0197d05" x="21.39" y="118.4" width="11.89" height="27.89"/></g></mask><filter id="0d2ef7ae-cfa4-4021-934b-39a9eaa077fd" x="41.77" y="124.68" width="11.89" height="21.61" filterUnits="userSpaceOnUse" color-interpolation-filters="sRGB"><feFlood flood-color="#fff" result="bg"/><feBlend in="SourceGraphic" in2="bg"/></filter><mask id="1f2e4a1d-bb3f-41dc-a7ed-9ebf8f1d2229" x="41.77" y="124.68" width="11.89" height="21.61" maskUnits="userSpaceOnUse"><g class="ee329f8a-719a-4260-8c93-29cfaa61cc1f"><rect class="3b1ba456-6674-4def-9547-6e09abbf0292" x="41.77" y="124.68" width="11.89" height="21.61"/></g></mask><filter id="8c24930d-d095-41ec-9b66-8239e871860f" x="62.16" y="98.25" width="11.89" height="48.05" filterUnits="userSpaceOnUse" color-interpolation-filters="sRGB"><feFlood flood-color="#fff" result="bg"/><feBlend in="SourceGraphic" in2="bg"/></filter><mask id="bf37687b-66fb-4182-8680-0a2805656d4b" x="62.16" y="98.25" width="11.89" height="48.05" maskUnits="userSpaceOnUse"><g class="ee887b00-0bfc-4830-8fde-e1d3d31764e4"><rect class="cc116aef-c78f-4f6b-96b6-aa767d7f5cfc" x="62.16" y="98.25" width="11.89" height="48.05"/></g></mask><filter id="91d31c8b-270a-4f9c-a7fc-026fa1dec3c1" x="82.55" y="91.67" width="11.89" height="54.63" filterUnits="userSpaceOnUse" color-interpolation-filters="sRGB"><feFlood flood-color="#fff" result="bg"/><feBlend in="SourceGraphic" in2="bg"/></filter><mask id="552755cd-7f69-4cf7-9937-bdc8d6252990" x="82.55" y="91.67" width="11.89" height="54.63" maskUnits="userSpaceOnUse"><g class="2ce95577-0ecd-4ac1-b9fa-4c70ef65173f"><rect class="f3a4bb0e-5716-47d6-9969-033d4b05646b" x="82.55" y="91.67" width="11.89" height="54.63"/></g></mask><filter id="dde87bbc-8d1e-4a28-bdf1-3409a083a5eb" x="102.94" y="81.69" width="11.89" height="64.6" filterUnits="userSpaceOnUse" color-interpolation-filters="sRGB"><feFlood flood-color="#fff" result="bg"/><feBlend in="SourceGraphic" in2="bg"/></filter><mask id="d2922ce9-cc75-4662-8b88-307b269de0f0" x="102.94" y="81.69" width="11.89" height="64.6" maskUnits="userSpaceOnUse"><g class="02e69240-1b31-4754-8d50-19cf5246a608"><rect class="56bd80eb-ed1e-46a6-b040-fb239f2fe459" x="102.94" y="81.69" width="11.89" height="64.6"/></g></mask><filter id="c6b0850e-95af-445f-917e-70e240d3407f" x="123.32" y="94.31" width="11.89" height="51.99" filterUnits="userSpaceOnUse" color-interpolation-filters="sRGB"><feFlood flood-color="#fff" result="bg"/><feBlend in="SourceGraphic" in2="bg"/></filter><mask id="b5b04dda-b06f-40ac-9a3a-72292b9d4458" x="123.32" y="94.31" width="11.89" height="51.99" maskUnits="userSpaceOnUse"><g class="687ae38d-cfc1-41f8-b06a-76b17e21448a"><rect class="cac0808f-6a9e-4c5b-9451-7896823d0281" x="123.32" y="94.31" width="11.89" height="51.99"/></g></mask><filter id="947aa317-0d38-431a-a475-bbd32eeab3cc" x="143.71" y="90.07" width="11.89" height="56.23" filterUnits="userSpaceOnUse" color-interpolation-filters="sRGB"><feFlood flood-color="#fff" result="bg"/><feBlend in="SourceGraphic" in2="bg"/></filter><mask id="bd4ce2d1-d3c6-4d59-90e5-8b7095ee33cb" x="143.71" y="90.07" width="11.89" height="56.23" maskUnits="userSpaceOnUse"><g class="d1408d6c-5b06-4f91-8e2d-b849526b3afe"><rect class="fa759dd2-c41e-461a-9328-f76cafd0c102" x="143.71" y="90.07" width="11.89" height="56.23"/></g></mask><filter id="397084dc-23ba-4e97-9fb5-2cf29e7b2e1c" x="164.1" y="74.74" width="11.89" height="71.55" filterUnits="userSpaceOnUse" color-interpolation-filters="sRGB"><feFlood flood-color="#fff" result="bg"/><feBlend in="SourceGraphic" in2="bg"/></filter><mask id="8c7b6740-5dcc-4425-8138-9178cf691356" x="164.1" y="74.74" width="11.89" height="71.55" maskUnits="userSpaceOnUse"><g class="4efa2fa5-ee35-4a83-9ced-d1e389cc8059"><rect class="0567e705-21ca-4c05-b178-7040776be3be" x="164.1" y="74.74" width="11.89" height="71.55"/></g></mask><filter id="4b4c173f-20f2-4464-98f1-a0a82dc9fc5c" x="184.48" y="79.27" width="11.89" height="67.02" filterUnits="userSpaceOnUse" color-interpolation-filters="sRGB"><feFlood flood-color="#fff" result="bg"/><feBlend in="SourceGraphic" in2="bg"/></filter><mask id="bdc48ebc-78c3-4c53-8502-5f63e4d511a2" x="184.48" y="79.27" width="11.89" height="67.02" maskUnits="userSpaceOnUse"><g class="f46976a0-142e-4870-826c-dd12e594e77d"><rect class="3a93d14d-7ca3-4272-8124-2a17f2cdd21a" x="184.48" y="79.27" width="11.89" height="67.02"/></g></mask><filter id="db70c75b-6c06-4917-977e-a37432d0d769" x="204.87" y="66.28" width="11.89" height="80.02" filterUnits="userSpaceOnUse" color-interpolation-filters="sRGB"><feFlood flood-color="#fff" result="bg"/><feBlend in="SourceGraphic" in2="bg"/></filter><mask id="e0eda46c-d242-49e6-881f-b7d4e24e01e2" x="204.87" y="66.28" width="11.89" height="80.02" maskUnits="userSpaceOnUse"><g class="9ff640a7-5104-4d38-910c-7f27d5db9335"><rect class="5b88d6ea-34df-4e78-af82-a36f80afe6aa" x="204.87" y="66.28" width="11.89" height="80.02"/></g></mask><filter id="d554b651-6bc1-4596-8f33-ca35fed4cddf" x="225.26" y="55.13" width="11.89" height="91.17" filterUnits="userSpaceOnUse" color-interpolation-filters="sRGB"><feFlood flood-color="#fff" result="bg"/><feBlend in="SourceGraphic" in2="bg"/></filter><mask id="5709e8bd-c703-46f9-b86b-0acd034ec7fa" x="225.26" y="55.13" width="11.89" height="91.17" maskUnits="userSpaceOnUse"><g class="c36c0ae6-7939-4e45-8b1b-7b9803a1bff8"><rect class="4f43a571-4cc9-459c-8a8b-90fde03b577a" x="225.26" y="55.13" width="11.89" height="91.17"/></g></mask><filter id="dd1e25ed-36d4-4aa4-979b-93cadd71a108" x="245.64" y="41.06" width="11.89" height="105.23" filterUnits="userSpaceOnUse" color-interpolation-filters="sRGB"><feFlood flood-color="#fff" result="bg"/><feBlend in="SourceGraphic" in2="bg"/></filter><mask id="f3aa1caf-fdaa-4119-9a8f-9fb8676b1f10" x="245.64" y="41.06" width="11.89" height="105.23" maskUnits="userSpaceOnUse"><g class="64c96066-6672-4243-a998-fa9a6b7cd9d6"><rect class="ae20ac50-c4d1-4f56-bc59-4c54a753d877" x="245.64" y="41.06" width="11.89" height="105.23"/></g></mask><filter id="b37d3e4d-f99d-4d61-aaa3-b634f8bcfd3e" x="266.03" y="61.13" width="11.89" height="85.17" filterUnits="userSpaceOnUse" color-interpolation-filters="sRGB"><feFlood flood-color="#fff" result="bg"/><feBlend in="SourceGraphic" in2="bg"/></filter><mask id="23458af0-a515-4b6e-a2e9-f920cc8c95d2" x="266.03" y="61.13" width="11.89" height="85.17" maskUnits="userSpaceOnUse"><g class="d0a7ed79-21ab-40dd-ac6f-fd61aea24304"><rect class="b1193226-55a5-4113-8c92-81c55792c91d" x="266.03" y="61.13" width="11.89" height="85.17"/></g></mask><filter id="8dcd6b9f-0e22-449e-bb85-371a3ce57ab9" x="286.42" y="53.69" width="11.89" height="92.6" filterUnits="userSpaceOnUse" color-interpolation-filters="sRGB"><feFlood flood-color="#fff" result="bg"/><feBlend in="SourceGraphic" in2="bg"/></filter><mask id="6627aba4-0342-4959-81f3-503a2ec730fb" x="286.42" y="53.69" width="11.89" height="92.6" maskUnits="userSpaceOnUse"><g class="bc560e6e-1918-4feb-b773-576a2cf98ac9"><rect class="dd6a3cee-831b-4af3-81e9-ca220dfe564e" x="286.42" y="53.69" width="11.89" height="92.6"/></g></mask><filter id="5e731b95-dde3-4c4b-8339-a443a9408ad5" x="306.8" y="43.43" width="11.89" height="102.86" filterUnits="userSpaceOnUse" color-interpolation-filters="sRGB"><feFlood flood-color="#fff" result="bg"/><feBlend in="SourceGraphic" in2="bg"/></filter><mask id="58467dee-4f22-4371-83f5-4ebbb7e9b3cc" x="306.8" y="43.43" width="11.89" height="102.86" maskUnits="userSpaceOnUse"><g class="74246d7c-a803-4578-b989-81a872d68bd0"><rect class="9c04b944-e132-4ca8-a689-2914a39b1da1" x="306.8" y="43.43" width="11.89" height="102.86"/></g></mask><filter id="d7712fee-c0e8-40e0-aa3e-b67fc5a8fb4d" x="327.19" y="66.57" width="11.89" height="79.73" filterUnits="userSpaceOnUse" color-interpolation-filters="sRGB"><feFlood flood-color="#fff" result="bg"/><feBlend in="SourceGraphic" in2="bg"/></filter><mask id="0ca71c96-3b53-44e3-8a0b-d9f876f6210d" x="327.19" y="66.57" width="11.89" height="79.73" maskUnits="userSpaceOnUse"><g class="3b4c0d4c-d01c-42c9-9f5f-eab29289d866"><rect class="bb5f461b-d62c-43d5-b504-8cc715a95d5c" x="327.19" y="66.57" width="11.89" height="79.73"/></g></mask><filter id="fe6c62a9-bf60-4fd4-a3a6-3df8bc4d85c2" x="347.58" y="52.93" width="11.89" height="93.36" filterUnits="userSpaceOnUse" color-interpolation-filters="sRGB"><feFlood flood-color="#fff" result="bg"/><feBlend in="SourceGraphic" in2="bg"/></filter><mask id="f3ddf99a-9ee6-49f5-b869-3936bdb79477" x="347.58" y="52.93" width="11.89" height="93.36" maskUnits="userSpaceOnUse"><g class="038d6d9e-2949-4f5d-b6d9-5cd0234b483a"><rect class="496e89c0-2ed4-493c-84f3-c6f4ff7c24d2" x="347.58" y="52.93" width="11.89" height="93.36"/></g></mask><filter id="a5efb202-984c-46ed-a75e-5428f7bd84eb" x="367.96" y="43.84" width="11.89" height="102.45" filterUnits="userSpaceOnUse" color-interpolation-filters="sRGB"><feFlood flood-color="#fff" result="bg"/><feBlend in="SourceGraphic" in2="bg"/></filter><mask id="d4f4ae0b-f891-4080-87ed-9dffa6ddbcfc" x="367.96" y="43.84" width="11.89" height="102.45" maskUnits="userSpaceOnUse"><g class="eb0b801f-72b6-48e8-86b7-891794282e81"><rect class="df993c3b-28a1-4b07-8f4f-d1bd0057fc2e" x="367.96" y="43.84" width="11.89" height="102.45"/></g></mask><filter id="817cd7f1-c73d-4d8b-a275-236111547d2b" x="8.9" y="168.83" width="144.1" height="2.02" filterUnits="userSpaceOnUse" color-interpolation-filters="sRGB"><feFlood flood-color="#fff" result="bg"/><feBlend in="SourceGraphic" in2="bg"/></filter><mask id="cbf764f5-8c6f-456c-90c6-7c565a5d48f0" x="8.9" y="168.83" width="144.1" height="2.02" maskUnits="userSpaceOnUse"><g class="fa577fb7-ce08-4ab9-975b-87f81827e3b5"><polygon class="18c9c786-c6c1-4597-9055-8c4abe9190df" points="148.89 170.85 8.9 170.85 13.01 168.83 153 168.83 148.89 170.85"/></g></mask></defs><title>Asset 55</title><g id="d83ac461-5557-48a8-9fc6-365d7ef76e22" data-name="Layer 2"><g id="4e310e3e-bb83-4bea-ba2a-cfdf7315ca63" data-name="Layer 1"><rect class="1922793a-09bb-46c1-86dd-08a95fc8ad2a" y="0.27" width="380" height="178.3"/><path class="78376e63-9a7b-439a-b583-e2966171a4e5" d="M132.09,15.71a2.82,2.82,0,1,1,2.82-2.82A2.82,2.82,0,0,1,132.09,15.71Zm0-4.2a1.39,1.39,0,1,0,1.38,1.38A1.38,1.38,0,0,0,132.09,11.51Z"/><path class="78376e63-9a7b-439a-b583-e2966171a4e5" d="M165.21,41a2.31,2.31,0,1,1,2.31-2.31A2.3,2.3,0,0,1,165.21,41Zm0-3.24a.94.94,0,1,0,.94.93A.93.93,0,0,0,165.21,37.76Z"/><path class="78376e63-9a7b-439a-b583-e2966171a4e5" d="M152.41,77.67a2.75,2.75,0,1,1,2.75-2.75A2.75,2.75,0,0,1,152.41,77.67Zm0-4.06a1.31,1.31,0,1,0,1.31,1.31A1.31,1.31,0,0,0,152.41,73.61Z"/><path class="78376e63-9a7b-439a-b583-e2966171a4e5" d="M18.12,27.72A.72.72,0,0,1,17.4,27V20.15a.72.72,0,1,1,1.43,0V27A.71.71,0,0,1,18.12,27.72Z"/><path class="78376e63-9a7b-439a-b583-e2966171a4e5" d="M21.54,24.29H14.69a.72.72,0,1,1,0-1.43h6.85a.72.72,0,1,1,0,1.43Z"/><path class="78376e63-9a7b-439a-b583-e2966171a4e5" d="M365.43,16.44a.72.72,0,0,1-.72-.72V8.86a.72.72,0,0,1,1.44,0v6.86A.72.72,0,0,1,365.43,16.44Z"/><path class="78376e63-9a7b-439a-b583-e2966171a4e5" d="M368.86,13H362a.72.72,0,1,1,0-1.44h6.86a.72.72,0,1,1,0,1.44Z"/><path class="78376e63-9a7b-439a-b583-e2966171a4e5" d="M13.84,104.49a.72.72,0,0,1-.72-.72v-3.16a.72.72,0,0,1,1.44,0v3.16A.73.73,0,0,1,13.84,104.49Z"/><path class="78376e63-9a7b-439a-b583-e2966171a4e5" d="M15.42,102.91H12.26a.72.72,0,0,1,0-1.44h3.16a.72.72,0,1,1,0,1.44Z"/><g class="1891088b-7d5d-4145-bc05-a33dd4382596"><rect class="35011639-c334-41d3-9b54-f939a0bfee5c" x="1" y="137.97" width="11.89" height="8.32"/></g><g class="00245615-7428-497b-b75f-5b6592c33d91"><rect class="35011639-c334-41d3-9b54-f939a0bfee5c" x="21.39" y="118.4" width="11.89" height="27.89"/></g><g class="2edfd68f-d88a-4ee9-b021-b2f04195bebd"><rect class="35011639-c334-41d3-9b54-f939a0bfee5c" x="41.77" y="124.68" width="11.89" height="21.61"/></g><g class="59faddaf-1c31-4500-a945-79861125c5f7"><rect class="35011639-c334-41d3-9b54-f939a0bfee5c" x="62.16" y="98.25" width="11.89" height="48.05"/></g><g class="77e33c24-7d24-42a4-92d9-d8807af2f747"><rect class="35011639-c334-41d3-9b54-f939a0bfee5c" x="82.55" y="91.67" width="11.89" height="54.63"/></g><g class="ed5710d9-3acd-411b-92b8-4fceb0001cc2"><rect class="35011639-c334-41d3-9b54-f939a0bfee5c" x="102.94" y="81.69" width="11.89" height="64.6"/></g><g class="f0f56fe4-f31d-454e-88fa-40e67bc12929"><rect class="35011639-c334-41d3-9b54-f939a0bfee5c" x="123.32" y="94.31" width="11.89" height="51.99"/></g><g class="6f49ca1b-f9f8-4243-812f-5adf280b9488"><rect class="35011639-c334-41d3-9b54-f939a0bfee5c" x="143.71" y="90.07" width="11.89" height="56.23"/></g><g class="96ea0b79-3e11-4316-8f67-d4394fdbc80c"><rect class="35011639-c334-41d3-9b54-f939a0bfee5c" x="164.1" y="74.74" width="11.89" height="71.55"/></g><g class="da7811b5-e2af-4684-bb11-7ec42701c19f"><rect class="35011639-c334-41d3-9b54-f939a0bfee5c" x="184.48" y="79.27" width="11.89" height="67.02"/></g><g class="e83cfd90-f55c-4039-9fbf-219071654fe0"><rect class="35011639-c334-41d3-9b54-f939a0bfee5c" x="204.87" y="66.28" width="11.89" height="80.02"/></g><g class="c51af79c-e540-49d9-b004-de3fadf4a893"><rect class="35011639-c334-41d3-9b54-f939a0bfee5c" x="225.26" y="55.13" width="11.89" height="91.17"/></g><g class="337e16e8-e1c6-4278-8c16-2a51a2332847"><rect class="35011639-c334-41d3-9b54-f939a0bfee5c" x="245.64" y="41.06" width="11.89" height="105.23"/></g><g class="bbdef1dc-177e-4fd4-b4c2-b25aab41632b"><rect class="35011639-c334-41d3-9b54-f939a0bfee5c" x="266.03" y="61.13" width="11.89" height="85.17"/></g><g class="d44101b4-e70e-463f-ae87-0059dbfc8b3f"><rect class="35011639-c334-41d3-9b54-f939a0bfee5c" x="286.42" y="53.69" width="11.89" height="92.6"/></g><g class="be9447e5-17d8-4f1f-ab3a-a049b46dff81"><rect class="35011639-c334-41d3-9b54-f939a0bfee5c" x="306.8" y="43.43" width="11.89" height="102.86"/></g><g class="f339746d-df49-4e66-b6f6-54c345e2b1f8"><rect class="35011639-c334-41d3-9b54-f939a0bfee5c" x="327.19" y="66.57" width="11.89" height="79.73"/></g><g class="97fd4a9d-8a1a-4d21-b618-c56f33dc0fe4"><rect class="35011639-c334-41d3-9b54-f939a0bfee5c" x="347.58" y="52.93" width="11.89" height="93.36"/></g><g class="42485252-4b21-46ce-88c8-cb3e7be93c68"><rect class="35011639-c334-41d3-9b54-f939a0bfee5c" x="367.96" y="43.84" width="11.89" height="102.45"/></g><rect class="7ef48f93-f0d8-4ab9-9209-827cc75d779e" width="381" height="179"/><rect class="0a253ae2-193b-454c-a180-53b8b4c1a59a" y="146" width="380" height="33.56"/><g class="d0d842c8-6b77-4504-942c-60301dfbe47d"><polygon class="1922793a-09bb-46c1-86dd-08a95fc8ad2a" points="148.89 170.85 8.9 170.85 13.01 168.83 153 168.83 148.89 170.85"/></g><path class="96c34bf2-c166-45e9-bbd4-14814f14a5a6" d="M108.05,41.51a21.86,21.86,0,0,0,10-4s-2.31,3.12-.82,4a3.54,3.54,0,0,0-.6,2.35,6.65,6.65,0,0,0,1,2.27s-1.21,3.39-.66,4.4c0,0-6.86-4.62-14.08-3C98,48.67,68.26,55.5,62.1,72.33S36.14,97.84,26.24,87,14.31,52.6,41.18,39.74s45.21.95,48.65,1.77C97.58,43.37,108.05,41.51,108.05,41.51Z"/><path class="eaed8f92-f530-4d31-88c5-2030123c0717" d="M116.9,51a3.47,3.47,0,0,1,0-2A17,17,0,0,0,110,46.15c-4.8-.88-16.92.74-25.06,3.39s-17.69,9.85-24,16S49.42,80.43,39.89,83a22.72,22.72,0,0,1-18.6-3.66,25.64,25.64,0,0,0,4.95,8.15C36.14,98.3,56,89.61,62.1,72.79S98,49.13,102.82,48C110,46.37,116.9,51,116.9,51Z"/><path class="7a6d1869-3555-4b4e-b597-e7170b159eb6" d="M108.6,50.81s-2-2.9-2-4.84,1.48-3.84,0-5.43-8.72-.51-9.22,1a2.78,2.78,0,0,0,.45,3c.52.35-.09,1.77,1,2.81s.82,2.13,2.13,2.66,3.8,3.79,3.8,3.79S108.14,52.49,108.6,50.81Z"/><path class="fb2931e0-40e4-49a8-9b82-2b1d543b3a4a" d="M110.86,52.45l-1.73-3.7s-5.68.09-7.23,4.27l3.54,4.27S109.07,52.82,110.86,52.45Z"/><path class="1a95058b-5d05-4654-beb2-c46bfc2767b8" d="M110.23,49.68s5.9,19.89-.12,22.53c-2.06.9-21.92-3.13-30.58-18.35,0,0-.81-5.86,7.68-7.07L103.5,61.35a38.32,38.32,0,0,1-1.24-5.9C102.31,53.11,105.67,52,110.23,49.68Z"/><path class="7a6d1869-3555-4b4e-b597-e7170b159eb6" d="M100.75,54.36A20.51,20.51,0,0,0,99,50.91c-.95-1.39,1.76-2.49,2.06-3.37s-1.63-2.95.7-3.59,5.34.07,5.8,1.39c1.1,3.16.76,7.85-.42,8.73A6.9,6.9,0,0,1,100.75,54.36Z"/><polygon class="fc9ebc2f-5b04-49e0-a2bf-546dc62d2b08" points="91.45 62.7 79.77 90.93 72.8 85.04 91.45 62.7"/><path class="6c5f0c16-b3ba-439d-b462-39b4c4edd45b" d="M33.35,151.91s-4.08,6.05-4,9.83l6,2.54,1.63-2.82a8,8,0,0,1,2.86,3.07C41.36,167,49.05,168,50.39,168S51.17,166,50,165s-6-3.44-6.72-5.87A50.78,50.78,0,0,1,42,153.35Z"/><path class="d95cc471-36b0-4ed0-960e-8a347ad32cf9" d="M77.71,87l-8.87,40.66c-2.29,4-24.48,31.57-24.48,31.57s-8.68-.42-12.31-7.32l22.38-28S55.7,101.2,55,95.75s-1.44-13,3.14-17.94C58.16,77.81,75.65,83.07,77.71,87Z"/><path class="6c5f0c16-b3ba-439d-b462-39b4c4edd45b" d="M89.51,159s-1.76,7.07-.41,10.6l6.48.35.57-3.21a8.06,8.06,0,0,1,3.74,1.91c2.31,1.79,9.88.13,11.15-.32s0-2.21-1.41-2.74-6.78-1.2-8.32-3.23a48.88,48.88,0,0,1-3.16-5Z"/><path class="d95cc471-36b0-4ed0-960e-8a347ad32cf9" d="M58.16,77.81s-5.4,9.19-2,16.62c2.76,6.08,23.45,26.41,24.7,29.05s6.51,38.39,6.51,38.39,9.29.9,13.42-2.4c0,0-3-34.42-4.6-39.51S76,86.47,76,86.47,63,79,58.16,77.81Z"/><path class="fb2931e0-40e4-49a8-9b82-2b1d543b3a4a" d="M77.66,45.81c11.35-9.16,16,1.82,16.92,5.52s-9,27.19-15,31.85c0,0-16,1.66-19.45-8.46C60.08,74.72,70.45,51.63,77.66,45.81Z"/><path class="9efacea1-7b5d-465f-8a6b-ab5f9dfa9a41" d="M83.13,42.63l7,17.95s4.12-7.84,4.52-8.68-1.7-5.87-3-7.14C87.49,40.65,83.13,42.63,83.13,42.63Z"/><path class="9efacea1-7b5d-465f-8a6b-ab5f9dfa9a41" d="M79.79,80.8c.18-.32.47-.49.64-.4s.16.44,0,.76-.47.49-.64.39S79.61,81.11,79.79,80.8Zm3.81-5.33c.14-.34.4-.56.58-.48s.22.4.09.74-.4.56-.58.48S83.47,75.8,83.6,75.47Zm4.05-7.37c.14-.34.4-.56.58-.48s.22.41.08.74-.4.56-.58.48S87.51,68.44,87.65,68.1Zm3.21-6.81c.14-.33.4-.55.58-.48s.22.41.08.75-.39.56-.58.48S90.72,61.63,90.86,61.29Z"/><path class="91dedeac-fb18-4878-af48-356c3ce5e2ea" d="M60.08,74.72l-1.92,3.09a16.71,16.71,0,0,0,9.39,7.53c6.46,1.91,10.26.83,10.26.83l1.72-3s-9.21-.64-13.64-3.5S60.08,74.72,60.08,74.72Z"/><path class="2aa8e4b1-e1cd-49fa-9a4c-d89b46aa768e" d="M78,83.51l-1.66-.06c-.32,0-.63.41-.68,1l-.06.61c0,.53.17,1,.49,1l1.66.06c.33,0,.63-.41.69-1l0-.61C78.53,84,78.3,83.53,78,83.51Zm1.31,1c.11-1.19-.36-1.9-1.08-1.92l-1.85-.07c-.72,0-1.41.64-1.53,1.82l-.06.68c-.12,1.19.38,1.9,1.1,1.92l1.84.07c.72,0,1.4-.64,1.51-1.83Z"/><path class="ed24bcae-4098-4da9-9953-25713954d600" d="M68.61,81l-1.9,4.09a3.24,3.24,0,0,0,2.21.62l1.69-4.1A7.46,7.46,0,0,0,68.61,81Z"/><path class="d7688cb6-1b42-4fa0-92a7-b79945335475" d="M91.5,57.94l.75,1.62s-2.59,12-3.66,17.25A49.91,49.91,0,0,0,88,89.74l4.62,5.57,1.51-6.38s-.49-4.48-.49-12.12c0-4.27-.35-16-.17-17.55s2-3.81,1.2-7.36Z"/><path class="7382a3f1-9ec1-4213-b7cf-210081a4d73b" d="M89.34,32.82A16.87,16.87,0,0,1,83,42.27c-5.14,3.58,11.47,7.8,11.47,7.8s-2.07-6.94,7.11-6.18C106.43,44.3,91.6,31.42,89.34,32.82Z"/><path class="7382a3f1-9ec1-4213-b7cf-210081a4d73b" d="M92.12,28.41c2.38-3.45,11.29-5.56,12.37-3.28A8.18,8.18,0,0,1,105.3,28c0,1.07,0,2.12.08,3.15a2.77,2.77,0,0,1,0,.7v.05L103.7,43.59a.65.65,0,0,1-.74.56l-7.7-1.07c-.33,0-3-3.85-3.54-4.82-.72-1,.12-1.12-.18-1.95C91.15,35.23,90,31.51,92.12,28.41Z"/><polygon class="7382a3f1-9ec1-4213-b7cf-210081a4d73b" points="102.52 28.27 99.06 32.7 95.61 37.13 101.17 37.91 106.73 38.69 104.63 33.48 102.52 28.27"/><path class="ccddd57a-f5b7-44fa-b881-82c75be9361c" d="M88.05,35.41l3.22-10.12s.71-1.72,6.31-1.81,7.35,1.09,7.35,1.09l2.17,1.78-1.63,2.42-6.23-1.41.56,4.26-2,4.3-1.53-.13-.08.1S97,33.37,95.71,32s-2.82-.06-2.46,1.67.09,2.24.09,2.24L91,37.26Z"/><path class="fc9ebc2f-5b04-49e0-a2bf-546dc62d2b08" d="M93.11,49.81c0,1.75-7.09,11.51-11,19.68s-10.42,31-10.42,31S52.31,92.54,52.76,87c0,0,12.46-28.46,17.29-35.52S82.87,40.3,87.47,41.83C93.34,43.78,93.1,47.1,93.11,49.81Z"/><path class="fb2931e0-40e4-49a8-9b82-2b1d543b3a4a" d="M99.48,57.77V54s5.94-1.82,8.69-.63v4.37A13,13,0,0,0,99.48,57.77Z"/><path class="eb6c8ae7-0182-4cc9-99b3-8066c3e058ba" d="M32,77.51a.93.93,0,0,1-.3-.67l-.45-19.52A1.44,1.44,0,0,1,32,56.1a1,1,0,0,1,1.23,0l.35.32A16.67,16.67,0,0,0,39,60.37a4.82,4.82,0,0,0,4.39-.72c.21-.14.41-.31.63-.49l-7.78-6.68a1.13,1.13,0,0,1,0-1.59,1.15,1.15,0,0,1,1.56-.3l7.76,6.66a7.86,7.86,0,0,0,1-2.58A4.79,4.79,0,0,0,45.28,50l-4-3.42a1.27,1.27,0,0,1,1.62-1.88L55.11,55.2a1.27,1.27,0,0,1-1.61,1.89L49,53.2a7.62,7.62,0,0,1-.14,1.43,10.7,10.7,0,0,1-1.64,3.93l2.91,2.5A1.28,1.28,0,0,1,48.47,63l-2.88-2.48a10.44,10.44,0,0,1-1.25,1,7,7,0,0,1-6.4,1.07,13.86,13.86,0,0,1-4.41-2.74l.39,16.48a1.48,1.48,0,0,1-1.08,1.39A1,1,0,0,1,32,77.51Z"/><path class="fc9ebc2f-5b04-49e0-a2bf-546dc62d2b08" d="M83.13,39.75s-2.39,3.3-2.3,4.42,3,10.39,3,10.39a11.37,11.37,0,0,1,5-.29l-6.72,4-1.3,14.26s6.25-11.7,8.75-15.2,4.3-6.5,4-9.29A10,10,0,0,0,83.13,39.75Z"/><path class="1a95058b-5d05-4654-beb2-c46bfc2767b8" d="M80.63,48.63s-8.25,5.27-4.92,9.69C79.53,63.39,99,73.89,105,73.58s3.74-17.46,3.74-17.46S99.21,53,97.94,58.32Z"/><path class="298445a3-996c-4ec3-9cf7-d467b9096474" d="M191.49,144.58a8.51,8.51,0,0,0,8.78,8.22H344.65a8.51,8.51,0,0,0,8.78-8.22V29.79a8.51,8.51,0,0,0-8.78-8.22H200.27a8.51,8.51,0,0,0-8.78,8.22Z"/><rect class="f6e62faf-000b-4032-91cf-5f045f0e7d4f" x="201.89" y="28.88" width="141.45" height="116.31"/><path class="f6e62faf-000b-4032-91cf-5f045f0e7d4f" d="M343.12,161.78v-9H314l6.37,9.53a7.39,7.39,0,0,0,5.36,2.67h13.93A3.33,3.33,0,0,0,343.12,161.78Z"/><path class="f6e62faf-000b-4032-91cf-5f045f0e7d4f" d="M219.49,165H205.56a3.33,3.33,0,0,1-3.44-3.22v-9h29.1l-6.37,9.53A7.39,7.39,0,0,1,219.49,165Z"/><polygon class="404a8d9b-93eb-4fb3-8793-05a9327eaf6e" points="341.28 145.19 238.2 164.37 238.2 10 341.28 28.73 341.28 145.19"/><polygon class="353c044e-cd35-4dcd-aa41-1adeea5a1888" points="230.4 155.77 238.2 164.37 238.2 10 230.4 18.6 230.4 155.77"/><ellipse class="353c044e-cd35-4dcd-aa41-1adeea5a1888" cx="297.98" cy="87.03" rx="21.22" ry="27.71"/><ellipse class="f6e62faf-000b-4032-91cf-5f045f0e7d4f" cx="300.52" cy="87.03" rx="19.67" ry="27.71"/><path class="353c044e-cd35-4dcd-aa41-1adeea5a1888" d="M301.89,65.87c-.55,0-1,.64-1,1.43v5.1c0,.79.44,1.44,1,1.44h0c.54,0,1-.65,1-1.44V67.3c0-.79-.45-1.43-1-1.43Z"/><path class="353c044e-cd35-4dcd-aa41-1adeea5a1888" d="M309.2,68.71c-.47-.4-1.08-.16-1.35.52l-1.76,4.42a1.8,1.8,0,0,0,.36,1.95h0c.47.4,1.08.16,1.35-.52l1.76-4.42a1.8,1.8,0,0,0-.36-2Z"/><path class="353c044e-cd35-4dcd-aa41-1adeea5a1888" d="M314.55,76.45c-.27-.68-.87-.92-1.35-.52l-3.05,2.55a1.8,1.8,0,0,0-.36,2h0c.27.69.87.92,1.35.53l3.05-2.55a1.82,1.82,0,0,0,.36-2Z"/><path class="353c044e-cd35-4dcd-aa41-1adeea5a1888" d="M316.51,87c0-.79-.44-1.43-1-1.43H312c-.55,0-1,.64-1,1.43h0c0,.79.44,1.43,1,1.43h3.52c.55,0,1-.64,1-1.43Z"/><path class="353c044e-cd35-4dcd-aa41-1adeea5a1888" d="M314.55,97.61a1.8,1.8,0,0,0-.36-2l-3.05-2.55c-.48-.4-1.08-.16-1.35.52h0a1.8,1.8,0,0,0,.36,2l3.05,2.55c.48.4,1.08.17,1.35-.52Z"/><path class="353c044e-cd35-4dcd-aa41-1adeea5a1888" d="M309.2,105.36a1.82,1.82,0,0,0,.36-2L307.8,99c-.27-.68-.88-.91-1.35-.52h0a1.79,1.79,0,0,0-.36,2l1.76,4.42c.27.69.88.92,1.35.53Z"/><path class="353c044e-cd35-4dcd-aa41-1adeea5a1888" d="M301.89,108.19c.54,0,1-.64,1-1.43v-5.1c0-.79-.45-1.43-1-1.43h0c-.55,0-1,.64-1,1.43v5.1c0,.79.44,1.43,1,1.43Z"/><path class="353c044e-cd35-4dcd-aa41-1adeea5a1888" d="M294.58,105.36c.47.39,1.07.16,1.35-.53l1.76-4.42a1.83,1.83,0,0,0-.36-2h0c-.48-.39-1.08-.16-1.35.52l-1.77,4.42a1.82,1.82,0,0,0,.37,2Z"/><path class="353c044e-cd35-4dcd-aa41-1adeea5a1888" d="M289.22,97.61c.28.69.88.92,1.35.52l3.06-2.55a1.82,1.82,0,0,0,.36-2h0c-.27-.68-.88-.92-1.35-.52l-3.06,2.55a1.82,1.82,0,0,0-.36,2Z"/><path class="353c044e-cd35-4dcd-aa41-1adeea5a1888" d="M287.26,87c0,.79.45,1.43,1,1.43h3.53c.54,0,1-.64,1-1.43h0c0-.79-.45-1.43-1-1.43h-3.53c-.54,0-1,.64-1,1.43Z"/><path class="353c044e-cd35-4dcd-aa41-1adeea5a1888" d="M289.22,76.45a1.84,1.84,0,0,0,.36,2L292.64,81c.47.39,1.08.16,1.35-.53h0a1.82,1.82,0,0,0-.36-2l-3.06-2.55c-.47-.4-1.07-.16-1.35.52Z"/><path class="353c044e-cd35-4dcd-aa41-1adeea5a1888" d="M294.58,68.71a1.8,1.8,0,0,0-.37,2L296,75.08c.27.68.87.92,1.35.52h0a1.82,1.82,0,0,0,.36-1.95l-1.76-4.42c-.28-.68-.88-.92-1.35-.52Z"/><path class="353c044e-cd35-4dcd-aa41-1adeea5a1888" d="M294.34,87c0,6.39,4.22,11.58,9.42,11.58s9.42-5.19,9.42-11.58S309,75.46,303.76,75.46,294.34,80.64,294.34,87Z"/><path class="a81b912f-67bf-4627-9e96-7d1f637786c5" d="M297.5,87c0,6.39,3.61,11.58,8.08,11.58s8.07-5.19,8.07-11.58S310,75.46,305.58,75.46,297.5,80.64,297.5,87Z"/><path class="a81b912f-67bf-4627-9e96-7d1f637786c5" d="M232.41,53.29c0,2.61.84,4.72,1.89,4.72s1.89-2.11,1.89-4.72-.85-4.73-1.89-4.73S232.41,50.68,232.41,53.29Z"/><path class="a81b912f-67bf-4627-9e96-7d1f637786c5" d="M232.41,87.17c0,2.61.84,4.73,1.89,4.73s1.89-2.12,1.89-4.73-.85-4.72-1.89-4.72S232.41,84.56,232.41,87.17Z"/><path class="a81b912f-67bf-4627-9e96-7d1f637786c5" d="M232.41,121.06c0,2.61.84,4.72,1.89,4.72s1.89-2.11,1.89-4.72-.85-4.72-1.89-4.72S232.41,118.45,232.41,121.06Z"/><path class="f6e62faf-000b-4032-91cf-5f045f0e7d4f" d="M251.51,87.09c0,3.79,2.25,6.86,5,6.86s5-3.07,5-6.86-2.25-6.86-5-6.86S251.51,83.3,251.51,87.09Z"/><path class="353c044e-cd35-4dcd-aa41-1adeea5a1888" d="M257.93,84h8.61a3.18,3.18,0,0,1,3.27,3.07v25a3.28,3.28,0,0,1-6.55,0v-22h-5.33a3.08,3.08,0,1,1,0-6.14Z"/><path class="b9cbd540-1d94-4e1f-898f-878a61ff34d9" d="M339.16,45.24a3.3,3.3,0,0,0,3.41,3.19h0A3.31,3.31,0,0,0,346,45.24V33.36a3.31,3.31,0,0,0-3.42-3.19h0a3.3,3.3,0,0,0-3.41,3.19Z"/><rect class="0a253ae2-193b-454c-a180-53b8b4c1a59a" x="339.16" y="40.21" width="6.83" height="1.72"/><path class="b9cbd540-1d94-4e1f-898f-878a61ff34d9" d="M339.16,140.38a3.31,3.31,0,0,0,3.41,3.2h0a3.32,3.32,0,0,0,3.42-3.2V128.5a3.31,3.31,0,0,0-3.42-3.19h0a3.3,3.3,0,0,0-3.41,3.19Z"/><rect class="0a253ae2-193b-454c-a180-53b8b4c1a59a" x="339.16" y="135.41" width="6.83" height="1.72"/></g></g></svg>