<svg xmlns="http://www.w3.org/2000/svg" viewBox="0 0 382.13 180.28"><defs><style>.\37 4d4dd97-a86b-4f0e-b79a-dca05c3ab921{fill:#efefef;}.\35 2754cf2-e299-4a2c-820b-79a7b4a22eb8{fill:#cfd0d1;}.\33 f5366e4-82d5-492f-b329-7fc77158a566{fill:#e6e7e8;}.\38 d4f2e5f-3a5a-4241-9163-e4dbd00a3850{fill:#bbbdbf;}.cf37540c-6e69-4014-896c-274676dcfbeb{fill:#333;}.\31 252a7d7-4327-4e6d-b88a-e12b28829e1f{fill:#cecece;}.\38 e75b09a-d11d-47de-aa3e-6c807e223fea{fill:#ffdfaf;}.\33 45fc95b-4465-454b-997f-bb6dd4fddc16,.c3a5630d-8da3-4f40-8cd1-157da09c9e09{fill:#fff;}.\31 fad1590-ce2e-4960-8868-d69407a0166f{fill:#0083ee;}.\38 ca78821-1952-413c-a5c3-a3cb9fc1c777{fill:#ffb878;}.\35 c308b55-ae7e-4011-a654-bf7696c8982d{fill:#343251;}.\30 f22768c-4684-4fe4-a242-d45cff930304{fill:#5da2f2;}.bac284b6-0567-453a-a3a9-96b39f10008d{fill:#ededed;}.\33 45fc95b-4465-454b-997f-bb6dd4fddc16{opacity:0.5;}.\33 795e4d5-7cc6-46fb-8d04-de365d5758ad{fill:#0066ea;}.\31 f7919e8-34b8-4d52-9d2b-1c85d6d37b03{fill:#b3e5fc;}.b9c3445e-9f05-43cd-b5be-b48dec48a98e{fill:#da3234;}.\31 b1e2cb5-9161-4c75-a94f-1dd3adc23c9b{fill:#ffb641;}.\37 485fe17-5a75-4ca9-b4f5-bf1972c3e8b8{fill:#84d794;}.b249c13e-cc01-4b15-9319-39bd1e261119{fill:#f28f20;}.\33 9b3b903-808f-4ede-9987-e6ed80dceffe{fill:#cc4233;}.\33 83f4fa1-377f-4f9e-9b26-55e38bfe32fe{fill:#676784;}.e7fe4f2b-6898-4a30-b883-ff99130e0fa2{fill:#ffc392;}.\34 27b1dff-8c74-4e83-8932-0ceeeee58d4b{fill:#eaa063;}.\34 a6a2133-ed17-4302-a3bd-bc097c58d9fb{fill:none;}</style></defs><title>Asset 51</title><g id="5e83f37f-63b9-49e1-853c-ee716eff7497" data-name="Layer 2"><g id="4ded839f-12da-4171-908b-c061ec3e019c" data-name="Layer 1"><rect class="74d4dd97-a86b-4f0e-b79a-dca05c3ab921" x="0.13" y="1" width="382" height="179.28"/><polygon class="52754cf2-e299-4a2c-820b-79a7b4a22eb8" points="348.13 124.57 348.13 179.77 0 179.77 0 109.3 2.61 109.3 2.61 121.52 9.79 121.52 9.79 134.76 10.5 134.76 10.5 128.6 13.36 128.6 14.3 120.75 15.24 128.6 17.39 128.6 17.39 134.76 18.68 134.76 18.68 138.07 23.21 138.07 23.21 121.65 32.54 121.65 38.56 127.23 38.56 132.43 39.98 132.43 39.98 115.8 48.3 115.8 52.62 119.99 52.62 123.84 61.9 123.84 61.9 134.78 67.58 134.78 67.58 126.59 72.04 124.89 72.04 118.96 76.63 115.8 76.63 143.6 78.58 144.18 78.66 136.88 92.19 136.88 92.19 140.34 100.85 140.34 100.85 128.37 108.99 128.37 108.99 123.23 115.47 123.23 115.47 118.74 126.58 115.77 130.35 118.74 130.35 133.1 133.18 133.91 133.18 121.89 135.21 121.89 135.21 118.15 146.48 118.15 146.48 115.59 147.19 115.59 147.19 118.15 147.79 118.15 147.79 115.51 148.5 115.51 148.5 118.15 149.04 118.15 149.04 136.79 150.44 136.79 150.44 119.72 153.72 119.72 153.72 112.27 157.07 112.27 157.07 109.51 160.43 109.51 160.43 112.27 168.46 112.27 171.1 112.98 171.1 127.95 174.33 127.95 174.33 105.92 180.29 105.92 180.29 118.15 187.48 118.15 187.48 131.38 188.18 131.38 188.18 125.22 191.04 125.22 191.99 117.37 192.93 125.22 195.08 125.22 195.08 127.95 200.16 127.95 200.16 122.91 200.9 122.91 200.9 118.28 208.57 118.28 208.87 115.8 209.16 118.28 210.23 118.28 216.25 123.85 216.25 129.06 217.61 129.06 217.61 125.12 217.67 125.07 217.67 112.43 225.99 112.43 230.3 116.61 230.3 120.47 239.58 120.47 239.58 131.41 245.26 131.41 245.26 123.22 249.73 121.51 249.73 115.58 254.32 112.43 254.32 140.23 256.27 140.81 256.35 133.51 269.87 133.51 269.87 136.97 278.54 136.97 278.54 124.99 288.2 124.99 288.2 133.08 291.79 134.2 291.79 124.99 293.15 124.61 293.15 115.36 304.26 112.4 308.04 115.36 308.04 129.73 311.13 130.62 311.13 120.67 321.26 120.67 325.63 123.26 325.63 136.41 328.12 136.41 328.12 116.35 336.23 116.35 336.23 136.41 338.18 136.41 338.18 126.03 343.02 124.57 348.13 124.57"/><rect class="3f5366e4-82d5-492f-b329-7fc77158a566" x="0.13" y="157.43" width="382" height="22.85"/><path class="8d4f2e5f-3a5a-4241-9163-e4dbd00a3850" d="M282.17,126.37v2.31l-3.69,3.14v6.12h-1.72v-4.31h-2.3v-3.24h-1.8l-.63-4.57-.63,4.57h-5.79v3.24H261v7.94h-1.43v-5.34h-4.45v5.34h-1.13V131h-4.45v2.59h-9.56l-3.57.94v6.68h-1.44V128.34h-6v12.91H227.1v-8.46l-3.22-1.67h-7.47v6.4l-2.28-.57V127.7l-2.78-1.9-8.2,1.9v6l-1,.24v5.93l-2.65-.72V133.9h-7.13v7.71H186v-2.23H176l0,4.7-1.44-.37V125.82l-3.39,2v3.81l-3.29,1.1V138h-4.19v-7h-6.84v-2.48l-3.19-2.69h-6.13v10.7h-1.05v-3.35L142,129.58h-6.88v10.57h-3.34V138h-.95v-4h-1.58l-.7-5.05-.69,5.05h-2.11v4h-.52V129.5h-5.3v-7.87h-4.4v20.31h-2.38V126.17l-2-.45h-5.92v-1.78H102.8v1.78h-.35l-1.34-2.31v-6.14H99.45l-1.66-2L93.08,98.94a7.3,7.3,0,0,1,1-1V95.7h-1l-1-1.49S87,51.82,87.32,37.31l1.42-1.17V33l-.85-.93v-1.9l-2.16-1.58V23.69l-.5-.31-.12-4.6h-.47l-.11,4.6-.5.31v4.89l-2.16,1.58v1.9L81,33v3.15l1.42,1.17c.35,14.51-4.8,56.9-4.8,56.9l-1,1.49h-1V98a7.74,7.74,0,0,1,1,1L72,115.26l-1.66,2H68.64v6.14l-4,7H64l-.63-4.57-.63,4.57H57v3.24H52.29v7.94H50.86v-5.34H46.41v5.34H45.28V131H40.83v2.59H31.27l-3.57.94v6.68H26.26V128.34h-6v12.91H18.44v-8.46l-3.22-1.67H7.75v6.4L5.47,137V127.7l-2.78-1.9-2.56.59v31.33H285.86V129.85ZM81.3,104.2h7.15s2.27,12.28,2.71,12.81H78.59C79,116.48,81.3,104.2,81.3,104.2Zm5.38,25.3v2.41h-1.5v10H78.13v-2.69H77.2v-9.4l-.37-.35a17.36,17.36,0,0,1,8-1.64,17.3,17.3,0,0,1,8,1.64Zm13.65,12H96.88v-9.31a18.72,18.72,0,0,1,3.45,4.33Z"/><polygon class="cf37540c-6e69-4014-896c-274676dcfbeb" points="203.59 48.53 205.42 48.26 205.39 48.53 203.59 48.88 203.59 48.53"/><path class="8d4f2e5f-3a5a-4241-9163-e4dbd00a3850" d="M238.22,22a.51.51,0,0,0,.65.34.52.52,0,1,0-.3-1A.51.51,0,0,0,238.22,22Z"/><path class="8d4f2e5f-3a5a-4241-9163-e4dbd00a3850" d="M241.43,30a.67.67,0,0,0,1.28-.38.67.67,0,1,0-1.28.38Z"/><path class="8d4f2e5f-3a5a-4241-9163-e4dbd00a3850" d="M218,25.32a.59.59,0,0,0,.73.39.59.59,0,1,0-.34-1.12A.59.59,0,0,0,218,25.32Z"/><path class="8d4f2e5f-3a5a-4241-9163-e4dbd00a3850" d="M239.36,40.33a1,1,0,1,0,1.95-.58,1,1,0,0,0-1.95.58Z"/><path class="8d4f2e5f-3a5a-4241-9163-e4dbd00a3850" d="M221.84,31.26a.39.39,0,1,0,.74-.22.38.38,0,0,0-.48-.26A.38.38,0,0,0,221.84,31.26Z"/><path class="8d4f2e5f-3a5a-4241-9163-e4dbd00a3850" d="M231.66,26.69a.27.27,0,0,0,.34.18.27.27,0,0,0,.18-.33.27.27,0,0,0-.34-.19A.28.28,0,0,0,231.66,26.69Z"/><path class="8d4f2e5f-3a5a-4241-9163-e4dbd00a3850" d="M224.49,23.09a.27.27,0,0,0,.52-.16.27.27,0,0,0-.33-.18A.27.27,0,0,0,224.49,23.09Z"/><path class="8d4f2e5f-3a5a-4241-9163-e4dbd00a3850" d="M248.73,26.77a.27.27,0,0,0,.34.18.28.28,0,0,0,.18-.34.28.28,0,0,0-.34-.18A.27.27,0,0,0,248.73,26.77Z"/><path class="8d4f2e5f-3a5a-4241-9163-e4dbd00a3850" d="M228.89,43.45a.65.65,0,0,0,.82.44.66.66,0,0,0-.38-1.26A.65.65,0,0,0,228.89,43.45Z"/><path class="8d4f2e5f-3a5a-4241-9163-e4dbd00a3850" d="M226.86,32.84a.82.82,0,0,0,1,.54.8.8,0,1,0-1-.54Z"/><path class="1252a7d7-4327-4e6d-b88a-e12b28829e1f" d="M235.84,172.23c0,1.05-10.32,1.91-23.06,1.91s-23.05-.86-23.05-1.91,10.32-1.91,23.05-1.91S235.84,171.18,235.84,172.23Z"/><polygon class="8e75b09a-d11d-47de-aa3e-6c807e223fea" points="217.62 113.38 220.61 167.33 223.42 167.28 226.2 113.75 217.62 113.38"/><polygon class="c3a5630d-8da3-4f40-8cd1-157da09c9e09" points="220.44 164.22 223.59 164.09 223.59 167.22 220.44 167.44 220.44 164.22"/><path class="8e75b09a-d11d-47de-aa3e-6c807e223fea" d="M186.29,43.52s-1.69-.19-1.79-1-.56-7.14,1.69-7.92a5.88,5.88,0,0,1,5.21.69s.41,6.34-.3,7.43-3.1,1.25-3.1,1.25Z"/><path class="8e75b09a-d11d-47de-aa3e-6c807e223fea" d="M204.47,114.9l-.29,52.75,2.81-.06s4.32-21.21,2.27-28.67c1.25-9.1,1.71-21.61,1.71-21.61Z"/><polygon class="cf37540c-6e69-4014-896c-274676dcfbeb" points="202.77 106.67 202.25 131.65 211.33 131.8 213.25 119.11 216.72 132.54 229.24 131.37 229.13 104.9 202.77 106.67"/><path class="cf37540c-6e69-4014-896c-274676dcfbeb" d="M206.56,65.32s.17-7.39,10-8.14,22.84-3.25,25,2.65,3,35.53.77,40.24-27,.52-27,.52Z"/><path class="8e75b09a-d11d-47de-aa3e-6c807e223fea" d="M200.29,65.36,190,60.18s-.12-18.56-2-19.73-6,15.72-3.18,22.41,13.76,9.77,13.76,9.77Z"/><path class="1fad1590-ce2e-4960-8868-d69407a0166f" d="M211.06,63.58s-1.11.89-5.21,1a32.18,32.18,0,0,1-6.27-.34s-1.77,7.48-2.14,9.2c4,1.71,6,1.42,6,1.42a39.07,39.07,0,0,0-4,16.35,59,59,0,0,0,2.14,15.57l29.7-1.12s2.34-36.85-.85-39.59a14.69,14.69,0,0,0-7-3.23Z"/><path class="8e75b09a-d11d-47de-aa3e-6c807e223fea" d="M221.52,48.37c.12,6.13-4.45,12-10.13,11.35-5.52-.64-6.59-5-6-11.09s4.25-12.11,8.93-12.2S221.41,42.23,221.52,48.37Z"/><path class="8e75b09a-d11d-47de-aa3e-6c807e223fea" d="M210.22,56.59l.95,7.46a4.55,4.55,0,0,0,4.47,2.72,5.12,5.12,0,0,0,4.43-3.46l-.59-10Z"/><path class="c3a5630d-8da3-4f40-8cd1-157da09c9e09" d="M194.5,171.61a6.38,6.38,0,0,1,3.51-3.44c2.43-.77,9.17-1.26,9.17-1.26a6.48,6.48,0,0,1,1.06,4.72Z"/><path class="cf37540c-6e69-4014-896c-274676dcfbeb" d="M241.27,74.06s4.39-1.37,6-.12,5.65,17.73,4.1,20.65-10.33,2-10.33,2Z"/><polygon class="cf37540c-6e69-4014-896c-274676dcfbeb" points="193.96 171.47 208.64 171.19 208.66 172.13 193.97 172.29 193.96 171.47"/><path class="8ca78821-1952-413c-a5c3-a3cb9fc1c777" d="M223,50.1a2,2,0,1,1-2-2A2,2,0,0,1,223,50.1Z"/><path class="c3a5630d-8da3-4f40-8cd1-157da09c9e09" d="M215.37,45.32a4.83,4.83,0,0,1,2,3.11,18.25,18.25,0,0,1,.22,3.26h1.19s.52-2.63,1.42-3.18,1.35-.32,1.35-.32l.05-1.88Z"/><path class="c3a5630d-8da3-4f40-8cd1-157da09c9e09" d="M211.49,46.68a1.22,1.22,0,0,1,.94-.88,4.38,4.38,0,0,1,2.61.73.83.83,0,0,1,.11.52Z"/><path class="c3a5630d-8da3-4f40-8cd1-157da09c9e09" d="M206,45.94a1.22,1.22,0,0,1,.94-.88,4.38,4.38,0,0,1,2.61.73.83.83,0,0,1,.11.52Z"/><polygon class="cf37540c-6e69-4014-896c-274676dcfbeb" points="186.32 35.16 195.89 35.79 195.58 42.66 185.96 41.85 186.32 35.16"/><path class="1fad1590-ce2e-4960-8868-d69407a0166f" d="M203.55,104.9s-2.73-6.22-2-17.4c.53-7.72,4.14-21.44,5.72-22.23,3.89-1.93,2.14,2.67,7.84,2.62S221,64,221,64l4.15.29S222,68.72,221,81.24s3.91,17.66,0,21.06S203.55,104.9,203.55,104.9Z"/><polygon class="5c308b55-ae7e-4011-a654-bf7696c8982d" points="206.94 63.45 202.59 74.8 201.71 78.89 209.83 63.53 206.94 63.45"/><path class="cf37540c-6e69-4014-896c-274676dcfbeb" d="M224.33,62.1a30.59,30.59,0,0,0-6,14c-1.28,8.46,14.06,19.58,14.06,19.58l.64-2.91s-13.16-7.78-12.44-16,8.18-13.33,8.18-13.33Z"/><path class="8e75b09a-d11d-47de-aa3e-6c807e223fea" d="M230.3,80.05s.46,15.5-1,17.86-25,1.44-24.47-2S223.58,94,223.58,94l.19-15.11Z"/><polygon class="cf37540c-6e69-4014-896c-274676dcfbeb" points="215.68 130.54 230.01 129.14 230.01 132.24 216.6 133.78 215.68 130.54"/><polygon class="cf37540c-6e69-4014-896c-274676dcfbeb" points="201.8 129.81 212.2 129.81 211.96 133.78 201.59 132.84 201.8 129.81"/><path class="c3a5630d-8da3-4f40-8cd1-157da09c9e09" d="M218.39,172.29s-.66-5,3.52-5.38,4.66,5.38,4.66,5.38Z"/><polygon class="cf37540c-6e69-4014-896c-274676dcfbeb" points="218.03 171.63 226.84 171.74 227.01 172.83 218.03 172.83 218.03 171.63"/><polygon class="c3a5630d-8da3-4f40-8cd1-157da09c9e09" points="204.06 167.19 203.97 164.52 207.58 164.49 207.26 167.01 204.06 167.19"/><rect class="0f22768c-4684-4fe4-a242-d45cff930304" x="227.03" y="98.99" width="0.34" height="6.81" transform="translate(-4.16 9.79) rotate(-2.44)"/><path class="0f22768c-4684-4fe4-a242-d45cff930304" d="M215.17,67.92a4.67,4.67,0,0,1-4.1-2,4.91,4.91,0,0,1-.83-2l.33,0a5,5,0,0,0,.78,1.88,4.4,4.4,0,0,0,3.9,1.83,5.32,5.32,0,0,0,4.33-2.34,8,8,0,0,0,1.19-2.32l.33.1a8.6,8.6,0,0,1-1.25,2.42,5.69,5.69,0,0,1-4.6,2.47Z"/><rect class="0f22768c-4684-4fe4-a242-d45cff930304" x="201.55" y="104.86" width="29.71" height="0.34" transform="matrix(1, -0.03, 0.03, 1, -3.18, 6.83)"/><path class="8d4f2e5f-3a5a-4241-9163-e4dbd00a3850" d="M227.18,129.14l-.15-4.76.11-.6-.55,0c-.1,0-.36,0-.4-.23s-.05-.28.69-.62l-1.4-17,.33,0,1.42,17.22-.11.05a3.46,3.46,0,0,0-.48.26l.91.06-.18.94.14,4.72Z"/><path class="8d4f2e5f-3a5a-4241-9163-e4dbd00a3850" d="M226,113.27a10.84,10.84,0,0,1-4.14-1.37,5.54,5.54,0,0,1-2.92-3.53,7.35,7.35,0,0,1-.32-2.27h.34a7.18,7.18,0,0,0,.3,2.18A5.19,5.19,0,0,0,222,111.6c3.21,1.54,4.16,1.31,4.17,1.31l.1.33A1.53,1.53,0,0,1,226,113.27Z"/><path class="8d4f2e5f-3a5a-4241-9163-e4dbd00a3850" d="M213.27,114.57a2.74,2.74,0,0,1-2-1.23c-.92-1.22-1.1-6.7-1.1-6.93h.34c0,.06.17,5.6,1,6.73a2.59,2.59,0,0,0,1.6,1.08l-.1-7.8h.34l.1,8.16h-.18Z"/><path class="8d4f2e5f-3a5a-4241-9163-e4dbd00a3850" d="M202.64,114.66l-.06-.34a3.23,3.23,0,0,0,2.07-1.87c.85-1.69,1.2-5.87,1.2-5.91l.34,0c0,.17-.36,4.28-1.24,6A3.55,3.55,0,0,1,202.64,114.66Z"/><path class="8ca78821-1952-413c-a5c3-a3cb9fc1c777" d="M188.86,34.38l2.95.94a3.25,3.25,0,0,1-1.48.61c-.87.12-2-.93-2-.93Z"/><path class="bac284b6-0567-453a-a3a9-96b39f10008d" d="M190.93,38.91c0,1.14-.59,2.06-1.3,2.06s-1.31-.92-1.31-2.06.59-2.06,1.31-2.06S190.93,37.77,190.93,38.91Z"/><path class="74d4dd97-a86b-4f0e-b79a-dca05c3ab921" d="M190.62,38.91c0,.87-.45,1.57-1,1.57s-1-.7-1-1.57.45-1.57,1-1.57S190.62,38,190.62,38.91Z"/><path class="8e75b09a-d11d-47de-aa3e-6c807e223fea" d="M189.63,43l5,.15s.14-.65-1.44-.94a8.93,8.93,0,0,0-3.22.1Z"/><path class="c3a5630d-8da3-4f40-8cd1-157da09c9e09" d="M205.57,54.67s-.3,6.9,6.52,7.43,6.67-10.41,6.67-10.41-.5-1.85-1.18-.41c-1.91,5.62-4.72,1.34-8.6,1.68C206.16,53.21,205.57,54.67,205.57,54.67Z"/><polygon class="345fc95b-4465-454b-997f-bb6dd4fddc16" points="203.59 48.53 208.26 48.67 208.26 50.26 203.59 50.26 203.59 48.53"/><polygon class="cf37540c-6e69-4014-896c-274676dcfbeb" points="214.82 48.67 220.67 48.26 220.1 48.56 214.82 49.06 214.82 48.67"/><polygon class="345fc95b-4465-454b-997f-bb6dd4fddc16" points="210.15 48.53 214.82 48.67 214.82 50.26 210.15 50.26 210.15 48.53"/><polygon class="cf37540c-6e69-4014-896c-274676dcfbeb" points="208.26 49.14 210.15 49.14 210.15 49.4 208.26 49.45 208.26 49.14"/><path class="3795e4d5-7cc6-46fb-8d04-de365d5758ad" d="M200.91,43.13c1.18.42,20.67,3.18,20.67,3.18s2.7-9.62-.43-11.53c-2.78-1.7-7.45-2.84-10.53-1.56s-4.3,8.46-4.3,8.46l-6.85-.28S198.87,42.41,200.91,43.13Z"/><path class="3795e4d5-7cc6-46fb-8d04-de365d5758ad" d="M221.15,44.59l8,1.83s.68.66-2.31.8-12.15-1.9-12.15-1.9l.32-1.1Z"/><path class="1f7919e8-34b8-4d52-9d2b-1c85d6d37b03" d="M201.88,101.51h5.69s.05-11.74-1-12.38a5.57,5.57,0,0,0-4.13-.18C201.63,89.38,201.88,101.51,201.88,101.51Z"/><rect class="1f7919e8-34b8-4d52-9d2b-1c85d6d37b03" x="203.55" y="87.83" width="1.68" height="1.23"/><polygon class="c3a5630d-8da3-4f40-8cd1-157da09c9e09" points="203.31 88.3 205.5 88.3 205.5 87.27 203.31 87.2 203.31 88.3"/><path class="8e75b09a-d11d-47de-aa3e-6c807e223fea" d="M209.6,93.89s-4.61-1.41-6.75-1-3.46,5.56.62,6,5.33-1.3,5.33-1.3Z"/><path class="c3a5630d-8da3-4f40-8cd1-157da09c9e09" d="M203.68,91.31a.26.26,0,1,1-.26-.26A.26.26,0,0,1,203.68,91.31Z"/><circle class="c3a5630d-8da3-4f40-8cd1-157da09c9e09" cx="204.56" cy="90.26" r="0.15"/><path class="c3a5630d-8da3-4f40-8cd1-157da09c9e09" d="M206,91.66a.36.36,0,0,1-.35.36.36.36,0,0,1,0-.71A.35.35,0,0,1,206,91.66Z"/><circle class="c3a5630d-8da3-4f40-8cd1-157da09c9e09" cx="204.56" cy="92.17" r="0.15"/><circle class="c3a5630d-8da3-4f40-8cd1-157da09c9e09" cx="205.27" cy="90.06" r="0.06"/><path class="c3a5630d-8da3-4f40-8cd1-157da09c9e09" d="M203.85,100.14a.22.22,0,1,1-.22-.22A.22.22,0,0,1,203.85,100.14Z"/><path class="c3a5630d-8da3-4f40-8cd1-157da09c9e09" d="M205.53,99.57a.16.16,0,1,1-.16-.16A.16.16,0,0,1,205.53,99.57Z"/><circle class="c3a5630d-8da3-4f40-8cd1-157da09c9e09" cx="205.53" cy="100.65" r="0.3"/><circle class="c3a5630d-8da3-4f40-8cd1-157da09c9e09" cx="204.05" cy="99.32" r="0.1"/><polygon class="cf37540c-6e69-4014-896c-274676dcfbeb" points="198.31 167.76 198.76 171.74 200.25 171.57 199.76 167.65 198.31 167.76"/><path class="cf37540c-6e69-4014-896c-274676dcfbeb" d="M203.76,166.78s1.13,1.87,2.1,1.85,1.8-1.15,1.8-1.15l.65,1a2.94,2.94,0,0,0-1.46,1.11,4.83,4.83,0,0,0-.23,2l-2.1.15a6.45,6.45,0,0,0,.16-2.24c-.18-.94-2.22-2.31-2.22-2.31Z"/><path class="1252a7d7-4327-4e6d-b88a-e12b28829e1f" d="M176.33,171.57c0,1.06-10.32,1.91-23.06,1.91s-23.06-.85-23.06-1.91,10.33-1.91,23.06-1.91S176.33,170.52,176.33,171.57Z"/><polygon class="8e75b09a-d11d-47de-aa3e-6c807e223fea" points="147.15 126.46 145.74 170.14 148.96 170.14 153.27 125.6 147.15 126.46"/><path class="8e75b09a-d11d-47de-aa3e-6c807e223fea" d="M158.27,118.7a42.72,42.72,0,0,0,1.66,13.22c-2,7.14,1.85,36.91,1.85,36.91h1.87l1.91-45.07Z"/><path class="8e75b09a-d11d-47de-aa3e-6c807e223fea" d="M161.73,168s10-.12,10.94,1.95-11.23,1-11.23,1S160.9,169,161.73,168Z"/><polygon class="cf37540c-6e69-4014-896c-274676dcfbeb" points="161.05 170.14 172.73 170.35 172.73 171.31 161.05 171.57 161.05 170.14"/><path class="8e75b09a-d11d-47de-aa3e-6c807e223fea" d="M144.72,170.86s0-3.58,2.86-3.4,3.25,3.15,3.25,3.15Z"/><rect class="cf37540c-6e69-4014-896c-274676dcfbeb" x="144.41" y="170.3" width="6.66" height="1.28"/><polygon class="b9c3445e-9f05-43cd-b5be-b48dec48a98e" points="145.59 109.75 144.72 157.88 151.06 158.26 157.03 123.31 158.84 157.62 166.59 157.36 168.54 108.81 145.59 109.75"/><path class="8e75b09a-d11d-47de-aa3e-6c807e223fea" d="M170.16,74.35l7,11.71-3,2.79s-8.71-9.89-8.71-10.13S170.16,74.35,170.16,74.35Z"/><polygon class="0f22768c-4684-4fe4-a242-d45cff930304" points="168.32 68.43 172.05 75.28 168.32 77.36 168.32 68.43"/><ellipse class="1b1e2cb5-9161-4c75-a94f-1dd3adc23c9b" cx="164.23" cy="49.35" rx="15.82" ry="5.59" transform="translate(-2.66 9.92) rotate(-3.43)"/><path class="7485fe17-5a75-4ca9-b4f5-bf1972c3e8b8" d="M157.74,64.27s-7.23,0-9.1,4c-1.31,2.8-4.29,41.54-4.29,41.54l25.74-1s1.46-38.68-2.77-42A13.67,13.67,0,0,0,157.74,64.27Z"/><path class="8e75b09a-d11d-47de-aa3e-6c807e223fea" d="M165.53,62.92c-3.83.19-8.75-6.66-7.93-11.89s4.52-8.7,8.34-8.38C173.84,43.33,172.91,62.54,165.53,62.92Z"/><path class="8e75b09a-d11d-47de-aa3e-6c807e223fea" d="M158.08,52.06l-.61,13.84a3.68,3.68,0,0,0,3.33,2.74c2.77.22,3.54-1.67,3.54-1.67l.6-8.85Z"/><path class="c3a5630d-8da3-4f40-8cd1-157da09c9e09" d="M157.82,50.61s-6.44.48-5.08,4.52c1.18,3.53,4.81,2.41,5.13,1.17C157.88,53.36,157.82,50.61,157.82,50.61Z"/><path class="c3a5630d-8da3-4f40-8cd1-157da09c9e09" d="M157.28,51.13s-4.19.49-3.94,3,4.23,1.26,4.23,1.26A13.21,13.21,0,0,1,157.28,51.13Z"/><path class="c3a5630d-8da3-4f40-8cd1-157da09c9e09" d="M168.31,50l2.44-.11s.1-.47-.67-.59A2.93,2.93,0,0,0,168.31,50Z"/><path class="8e75b09a-d11d-47de-aa3e-6c807e223fea" d="M159.09,52.34a1.38,1.38,0,0,1-1.56,1.14,1.37,1.37,0,1,1,.42-2.7A1.38,1.38,0,0,1,159.09,52.34Z"/><path class="c3a5630d-8da3-4f40-8cd1-157da09c9e09" d="M169.7,48.05s-3,3.53-6.17,3.91a10,10,0,0,1-5.87-1.33s1.24-2,5-2.63A22,22,0,0,1,169.7,48.05Z"/><path class="c3a5630d-8da3-4f40-8cd1-157da09c9e09" d="M167.83,48.25a11.91,11.91,0,0,0-5,.3,9,9,0,0,0-3.9,2,6.15,6.15,0,0,0,4.93.61A9.5,9.5,0,0,0,167.83,48.25Z"/><path class="bac284b6-0567-453a-a3a9-96b39f10008d" d="M145.46,111.72s7.24-1.09,12.35-1.28,10.8.24,10.8.24l-.07-1.87-22.95.94Z"/><path class="c3a5630d-8da3-4f40-8cd1-157da09c9e09" d="M157.66,50.63a10.22,10.22,0,0,1,6-2.74,27.25,27.25,0,0,1,7.82,1.23l3.22-.79-2-2.38-15.85-.36Z"/><path class="1b1e2cb5-9161-4c75-a94f-1dd3adc23c9b" d="M156.09,47.55l15.4-.4s-.46-9.61-8.16-8.95S156.09,47.55,156.09,47.55Z"/><path class="b249c13e-cc01-4b15-9319-39bd1e261119" d="M157.14,44.71a39.24,39.24,0,0,1,6.54-.93h5.61a54.18,54.18,0,0,1-7.15-1.12c-1.48-.56,2-4,2-4s-3.49.18-5.11,2.3A9.09,9.09,0,0,0,157.14,44.71Z"/><path class="b249c13e-cc01-4b15-9319-39bd1e261119" d="M152,52.73s-2.8-1.09-2.65-2.33,4.13-5.31,13.41-5.55,15.57,1.36,16.07,3.06-6.4,4.91-6.4,4.91l-.72-4.12s-.54-1.33-7.76-1.06-7.46,2.61-7.46,2.61S153.1,51.11,152,52.73Z"/><rect class="39b3b903-808f-4ede-9987-e6ed80dceffe" x="141.17" y="103.66" width="11.64" height="0.28" transform="translate(31.77 242.03) rotate(-85.41)"/><rect class="383f4fa1-377f-4f9e-9b26-55e38bfe32fe" x="144.45" y="107.98" width="25.58" height="0.28" transform="translate(-2.79 4.17) rotate(-1.51)"/><path class="e7fe4f2b-6898-4a30-b883-ff99130e0fa2" d="M150.66,78.69,148.2,91.47s-2.74-2.07-2.26-6.71,2.14-6.07,2.14-6.07Z"/><path class="427b1dff-8c74-4e83-8932-0ceeeee58d4b" d="M146.11,76l6.26,1.6-.44,2a12,12,0,0,0-3.81-1,3.86,3.86,0,0,0-3,1.37S145.88,76.43,146.11,76Z"/><path class="1fad1590-ce2e-4960-8868-d69407a0166f" d="M155.84,64.42l1,47.3-14.19.66s3.66-40.7,5.32-43.72A7.64,7.64,0,0,1,155.84,64.42Z"/><path class="8e75b09a-d11d-47de-aa3e-6c807e223fea" d="M153.34,73.14l-4.17,19S167,95,166.87,97.06s-19.66,1.77-22.28-2.77c-3.16-5.49,3.15-23.65,3.15-23.65Z"/><path class="0f22768c-4684-4fe4-a242-d45cff930304" d="M145.05,75.68l8.83,2.25s1.53-9-1-10.25C146.93,64.69,145.05,75.68,145.05,75.68Z"/><path class="1fad1590-ce2e-4960-8868-d69407a0166f" d="M164.66,65.22l1.2,46.1h4.9s-.48-40.09-1.37-42.29A7,7,0,0,0,164.66,65.22Z"/><polygon class="c3a5630d-8da3-4f40-8cd1-157da09c9e09" points="167.55 101.12 172.62 83.47 181.27 85.08 171.24 103.8 167.55 101.12"/><path class="8e75b09a-d11d-47de-aa3e-6c807e223fea" d="M161.93,95.4s5.71-2.83,8-1.35,2.36,4.69,0,5.52-8.5-1.71-8.5-1.71Z"/><polygon class="8d4f2e5f-3a5a-4241-9163-e4dbd00a3850" points="181.27 85.08 184.45 82.13 176.67 102.4 171.24 103.8 181.27 85.08"/><polygon class="c3a5630d-8da3-4f40-8cd1-157da09c9e09" points="184.45 82.13 191.77 86.37 181.27 104.39 176.67 102.4 184.45 82.13"/><path class="8e75b09a-d11d-47de-aa3e-6c807e223fea" d="M187.55,93.62s-2.79-.15-3.51,1.9a2.1,2.1,0,0,0,.89,2.79,3.06,3.06,0,0,0,2.45-2C188.07,94.38,187.55,93.62,187.55,93.62Z"/><polygon class="cf37540c-6e69-4014-896c-274676dcfbeb" points="164.07 170.57 164.55 167.82 165.04 167.82 164.79 170.57 164.07 170.57"/><polygon class="cf37540c-6e69-4014-896c-274676dcfbeb" points="168.34 170.86 168.82 168.1 169.31 168.1 169.06 170.86 168.34 170.86"/><path class="cf37540c-6e69-4014-896c-274676dcfbeb" d="M218.28,171.87s.13-4.38,3.79-4.57,4.3,4.67,4.3,4.67h.28s0-5.24-4.55-5.08-4,5-4,5Z"/><path class="cf37540c-6e69-4014-896c-274676dcfbeb" d="M144.79,170.51s.23-2.64,2.6-2.54,3.36,2.59,3.36,2.59h.19s-.85-3.22-3.54-3a3,3,0,0,0-2.78,3Z"/><path class="345fc95b-4465-454b-997f-bb6dd4fddc16" d="M166.7,54.43a1.95,1.95,0,1,1-1.95-2A2,2,0,0,1,166.7,54.43Z"/><path class="345fc95b-4465-454b-997f-bb6dd4fddc16" d="M172.21,53.85a2,2,0,1,1-2-2A1.95,1.95,0,0,1,172.21,53.85Z"/><polygon class="cf37540c-6e69-4014-896c-274676dcfbeb" points="166.64 53.97 168.31 53.76 168.31 54.16 166.7 54.34 166.64 53.97"/><polygon class="cf37540c-6e69-4014-896c-274676dcfbeb" points="162.97 53.63 157.87 50.75 157.83 51.05 162.84 54.06 162.97 53.63"/><path class="8d4f2e5f-3a5a-4241-9163-e4dbd00a3850" d="M145.55,22.94a.52.52,0,0,0,.74,0,.53.53,0,0,0,0-.74.51.51,0,0,0-.74,0A.52.52,0,0,0,145.55,22.94Z"/><path class="8d4f2e5f-3a5a-4241-9163-e4dbd00a3850" d="M152.14,28.5a.68.68,0,0,0,1,0,.67.67,0,0,0-.94-.95A.68.68,0,0,0,152.14,28.5Z"/><path class="8d4f2e5f-3a5a-4241-9163-e4dbd00a3850" d="M129.24,35.36a.59.59,0,1,0,0-.83A.59.59,0,0,0,129.24,35.36Z"/><path class="8d4f2e5f-3a5a-4241-9163-e4dbd00a3850" d="M155.17,38.59a1,1,0,0,0,1.43,0,1,1,0,1,0-1.43,0Z"/><path class="8d4f2e5f-3a5a-4241-9163-e4dbd00a3850" d="M135.43,38.81a.39.39,0,0,0,.55,0,.38.38,0,0,0,0-.55.4.4,0,0,0-.56,0A.39.39,0,0,0,135.43,38.81Z"/><path class="8d4f2e5f-3a5a-4241-9163-e4dbd00a3850" d="M142,30.16a.28.28,0,0,0,.38,0,.27.27,0,1,0-.38-.38A.28.28,0,0,0,142,30.16Z"/><path class="8d4f2e5f-3a5a-4241-9163-e4dbd00a3850" d="M133.94,30.34a.27.27,0,1,0,0-.38A.27.27,0,0,0,133.94,30.34Z"/><path class="8d4f2e5f-3a5a-4241-9163-e4dbd00a3850" d="M157.07,22.21a.27.27,0,0,0,.38-.38.27.27,0,0,0-.38,0A.26.26,0,0,0,157.07,22.21Z"/><path class="8d4f2e5f-3a5a-4241-9163-e4dbd00a3850" d="M147.38,46.26a.65.65,0,0,0,.93,0,.66.66,0,1,0-.93,0Z"/><path class="8d4f2e5f-3a5a-4241-9163-e4dbd00a3850" d="M140.61,37.84a.8.8,0,0,0,1.14-1.13.81.81,0,0,0-1.14,0A.81.81,0,0,0,140.61,37.84Z"/><path class="0f22768c-4684-4fe4-a242-d45cff930304" d="M222.73,79.13l8.19.81s.91-12.25-2-13S222.76,71.58,222.73,79.13Z"/><polygon class="4a6a2133-ed17-4302-a3bd-bc097c58d9fb" points="284.11 129.29 287.8 125.83 287.8 128.13 291.49 131.25 291.49 137.34 293.21 137.34 293.21 133.06 295.5 133.06 295.5 129.83 297.3 129.83 297.94 125.28 298.57 129.83 304.36 129.83 304.36 133.06 309.02 133.06 309.02 140.95 310.45 140.95 310.45 135.64 314.9 135.64 314.9 140.95 316.02 140.95 316.02 130.48 320.47 130.48 320.47 133.06 330.04 133.06 333.6 133.99 333.6 140.64 335.04 140.64 335.04 127.79 341.02 127.79 341.02 140.64 342.86 140.64 342.86 132.22 346.08 130.56 353.56 130.56 353.56 136.92 355.83 136.36 355.83 127.16 358.62 125.26 366.81 127.16 366.81 133.08 367.82 133.32 367.82 139.22 370.46 138.5 370.46 133.32 377.59 133.32 377.59 140.99 382.13 140.99 382.13 0 0.13 0 0.13 180.28 382.13 180.28 382.13 157.02 284.11 157.02 284.11 129.29"/><polygon class="8d4f2e5f-3a5a-4241-9163-e4dbd00a3850" points="377.59 141.34 377.59 133.5 370.46 133.5 370.46 138.79 367.82 139.53 367.82 133.5 366.81 133.25 366.81 127.2 358.62 125.26 355.83 127.2 355.83 136.6 353.56 137.18 353.56 130.67 346.08 130.67 342.86 132.37 342.86 140.97 341.02 140.97 341.02 127.84 335.04 127.84 335.04 140.97 333.6 140.97 333.6 134.18 330.04 133.23 320.47 133.23 320.47 130.59 316.02 130.59 316.02 141.3 314.9 141.3 314.9 135.87 310.45 135.87 310.45 141.3 309.02 141.3 309.02 133.23 304.36 133.23 304.36 129.93 298.57 129.93 297.94 125.28 297.3 129.93 295.5 129.93 295.5 133.23 293.21 133.23 293.21 137.61 291.49 137.61 291.49 131.38 287.8 128.19 287.8 125.85 284.11 129.38 284.11 157.72 382.13 157.72 382.13 141.34 377.59 141.34"/></g></g></svg>