<svg xmlns="http://www.w3.org/2000/svg" viewBox="0 0 381.5 179"><defs><style>.\34 70eaf30-d606-4fe8-b13a-ac80382b5ef6{fill:#efefef;}.c59c0803-8377-4207-877e-f8ac13b2a180{fill:#e6e7e8;}.\33 ee83817-53de-4f76-8ad3-2ea63135a77c{fill:#ecedee;}.c4810cbb-21d4-4a9f-a4d8-f16c7811d8bb{fill:#cecece;opacity:0.3;}.\36 7b0b670-9e9f-4b69-92e4-926d09ff177c{fill:#4ac461;}.\30 558eb3b-abb6-41f2-b9e9-f6ceac883132{fill:#00a649;}.\37 95d13d3-a8e3-462e-9eea-d100424f8f02{fill:#a8e9c4;}.\39 b9b3f4a-35fa-4687-b1e6-25d2c02e65f5{fill:#00a651;}.\36 f3743a4-e2a8-4de4-951d-89e202f67ac9{fill:#1a2d4e;}.\34 b599708-888d-4a20-becf-ca9759a50343{fill:#f28f20;}.\38 d0fe16b-d7b9-4c44-9897-3e0e30eefdc2{fill:#ffcb7b;}.\33 f95b231-6d4c-4960-bd06-013dc4e67e6b{fill:#333;}.\33 bdd25e8-61cd-4834-a2cd-90037df4e937{fill:#ffdfaf;}.a1021661-44af-4bae-a352-f69d8b3f711e{fill:#0083ee;}</style></defs><title>Asset 48</title><g id="dd38c970-5c13-46bb-800f-184fcb850120" data-name="Layer 2"><g id="72a4dcfb-177f-4760-97d5-08e4c7fbea6a" data-name="Layer 1"><rect class="470eaf30-d606-4fe8-b13a-ac80382b5ef6" width="381.5" height="179"/><rect class="c59c0803-8377-4207-877e-f8ac13b2a180" y="154" width="381.49" height="25"/><path class="3ee83817-53de-4f76-8ad3-2ea63135a77c" d="M132.89,53s11.8-.31,12-12.41c.06-3.59,1.2-.12,2.05,3.3s-.74,13.11-6.82,17-8.72,4.92-11.25,3.35S132.89,53,132.89,53Z"/><path class="c4810cbb-21d4-4a9f-a4d8-f16c7811d8bb" d="M363.07,121.37H293.83a7.09,7.09,0,1,1,0-14.18h69.24a7.1,7.1,0,0,0,0-14.19h-9.61a7.09,7.09,0,1,1,0-14.18h.66a7,7,0,0,0,7-7v-.22a7,7,0,0,0-7-7H314a7.11,7.11,0,0,1-7.09-7.09h0A7.11,7.11,0,0,1,314,50.46h3.64a6.9,6.9,0,0,0,6.87-6.88v-.43a6.9,6.9,0,0,0-6.87-6.88h-42a7.09,7.09,0,0,1,0-14.18h8.84A7.11,7.11,0,0,0,291.47,15h0a7.11,7.11,0,0,0-7.09-7.09H113.7A7.11,7.11,0,0,0,106.61,15h0a7.11,7.11,0,0,0,7.09,7.09h10.64a7.09,7.09,0,1,1,0,14.18H59.91A6.91,6.91,0,0,0,53,43.15v.43a6.91,6.91,0,0,0,6.88,6.88H96a7.11,7.11,0,0,1,7.09,7.09h0A7.11,7.11,0,0,1,96,64.64h-7.5a7,7,0,0,0-7,7v.22a7,7,0,0,0,7,7h60.69a7.09,7.09,0,0,1,0,14.18H21.21a7.1,7.1,0,1,0,0,14.19h76a7.09,7.09,0,0,1,0,14.18H88.58a7.09,7.09,0,1,0,0,14.18H363.07a7.09,7.09,0,1,0,0-14.18Z"/><path class="67b0b670-9e9f-4b69-92e4-926d09ff177c" d="M329.17,87.87a11.91,11.91,0,0,1-5.65-2.74,11.79,11.79,0,0,1-4-8.14l2.82-.2a9,9,0,0,0,9.64,8.42,6.95,6.95,0,0,0,6.48-7.41,5.29,5.29,0,0,0-5.64-4.92,4,4,0,0,0-3.67,4.21l-2.82.19a6.78,6.78,0,0,1,6.3-7.22,8.11,8.11,0,0,1,8.64,7.54A9.79,9.79,0,0,1,332.14,88,12.21,12.21,0,0,1,329.17,87.87Z"/><rect class="67b0b670-9e9f-4b69-92e4-926d09ff177c" x="194.83" y="139.14" width="26.56" height="30.81" rx="2.82" ry="2.82"/><rect class="67b0b670-9e9f-4b69-92e4-926d09ff177c" x="263.9" y="139.14" width="26.57" height="30.81" rx="2.82" ry="2.82"/><path class="0558eb3b-abb6-41f2-b9e9-f6ceac883132" d="M167.73,7.37c-.18,0-.35,0-.53,0V56.25h26.52a31.35,31.35,0,0,0-26-48.88Z"/><path class="67b0b670-9e9f-4b69-92e4-926d09ff177c" d="M135.32,69h16.74a63.94,63.94,0,0,1,38.52-40.61V7.4c.18,0,.35,0,.53,0a31.35,31.35,0,0,1,27.87,17h40.67a63.76,63.76,0,0,1,63.76,63.76v2.12A63.76,63.76,0,0,1,259.65,154H212.9a63.72,63.72,0,0,1-57.54-36.35H143.94l2.37-11.46h-11Z"/><path class="67b0b670-9e9f-4b69-92e4-926d09ff177c" d="M336.34,69a6.77,6.77,0,0,0-8.65-4.13l.95,2.66a3.94,3.94,0,0,1,5,2.41,5.29,5.29,0,0,1-3.22,6.75,5.15,5.15,0,0,1-3.73-.53c-1-.44-.62,4.57,4,3.4.24-.06.46-.13.69-.21A8.12,8.12,0,0,0,336.34,69Z"/><path class="795d13d3-a8e3-462e-9eea-d100424f8f02" d="M184.48,74.39h-2.69a8.22,8.22,0,1,0-16.43,0h-2.69a10.91,10.91,0,1,1,21.81,0Z"/><polygon class="9b9b3f4a-35fa-4687-b1e6-25d2c02e65f5" points="272.8 76.18 253.49 76.18 253.49 56.87 231.6 56.87 231.6 76.18 212.28 76.18 212.28 98.08 231.6 98.08 231.6 117.39 253.49 117.39 253.49 98.08 272.8 98.08 272.8 76.18"/><path class="6f3743a4-e2a8-4de4-951d-89e202f67ac9" d="M107.29,166l1.18,0,6.46-54-1.69-5.72-12.7-1.48-7.19,7.83,1.54,51.52h5.88L102.86,129l.58,36.93h.79a8,8,0,0,0-.23,2.5c.28,1,6,.9,8.41.94a.3.3,0,0,0,.28-.23.32.32,0,0,0-.15-.35C110.19,168.41,108.28,167.63,107.29,166Z"/><path class="4b599708-888d-4a20-becf-ca9759a50343" d="M143,150l-2.58-.73a3.14,3.14,0,0,0-1.92.06h0l-16.74,6L130,173.78,146.66,168l.28-.1v-12.6A5.44,5.44,0,0,0,143,150Z"/><path class="8d0fe16b-d7b9-4c44-9897-3e0e30eefdc2" d="M130.35,161.18a5.44,5.44,0,0,0-3.94-5.23l-2.57-.74a3.17,3.17,0,0,0-4,3v12.5l10.55,3Z"/><path class="3f95b231-6d4c-4960-bd06-013dc4e67e6b" d="M130.56,154c-.23.23-.5.33-.92,0v-2.32a3,3,0,0,1,2-2.8l3.31-1.22a1.82,1.82,0,0,1,1.66.22,1.8,1.8,0,0,1,.77,1.47v2.17c-.34.25-.66.32-.93,0v-2.17a.87.87,0,0,0-1.18-.82l-3.31,1.21a2.08,2.08,0,0,0-1.35,1.94Z"/><polygon class="3f95b231-6d4c-4960-bd06-013dc4e67e6b" points="125.54 162.99 124.61 162.59 124.61 155.25 125.54 155.25 125.54 162.99"/><polygon class="3bdd25e8-61cd-4834-a2cd-90037df4e937" points="105.76 45.04 99.59 45.04 99.73 36.59 105.76 36.53 105.76 45.04"/><path class="6f3743a4-e2a8-4de4-951d-89e202f67ac9" d="M96.12,164.05l-.34,3,7-1.38-.22-.39s-3.73-.49-4.07-1.5S96.12,164.05,96.12,164.05Z"/><path class="a1021661-44af-4bae-a352-f69d8b3f711e" d="M115.6,54.55A11.51,11.51,0,0,0,104.09,43a13,13,0,0,0-5.32.93c-2.57.86-8.8,5.54-8.8,8.77v41.4c.19,0,3.87,1,4.32,1,0,0,.29,1.64.71,1.71,2.1,2.71,5.39-4.3,9.09-4.3A11.51,11.51,0,0,0,115.6,81ZM94.47,48.26l-.06.09h0Z"/><path class="3bdd25e8-61cd-4834-a2cd-90037df4e937" d="M94.68,96.18l-4.75-1.36c0,.13,0,.25,0,.38,0,.33,0,.82,0,1.4Z"/><path class="3bdd25e8-61cd-4834-a2cd-90037df4e937" d="M96.08,94.48l-1.15,1.67H95l-.32.81-4.68.6c.2,2.5.85,5.77,2.91,5.73l1.34-5.64c1.73,0,1.93-.72,1.93-2.45A3.38,3.38,0,0,0,96.08,94.48Z"/><path class="a1021661-44af-4bae-a352-f69d8b3f711e" d="M133.25,51.27l-5.82,6.19a1.76,1.76,0,0,1-2.44.13L112.75,47l-4.33,8.82,12.84,9.91v0l2.58,2a4.72,4.72,0,0,0,3.79.9,4.67,4.67,0,0,0,3.16-2.29l7.6-13.42C137.52,51.13,135.74,50.69,133.25,51.27Z"/><path class="3f95b231-6d4c-4960-bd06-013dc4e67e6b" d="M139.19,46.54a1.95,1.95,0,1,1-1.95-2A2,2,0,0,1,139.19,46.54Z"/><path class="3bdd25e8-61cd-4834-a2cd-90037df4e937" d="M136.59,47.8c-.27.32-.45.55-.45.55a.77.77,0,0,0-.37-.77c-.44-.22-1.57,3-1.51,3h0a.77.77,0,0,1,.28-.06c1.84-.28,3.17.19,3.86,1.61A17.86,17.86,0,0,0,139.68,50,3.51,3.51,0,0,0,136.59,47.8Z"/><path class="3bdd25e8-61cd-4834-a2cd-90037df4e937" d="M139.54,46.19c-.58-.91-2.22.82-3,1.76a3.53,3.53,0,0,1,3.1,2.16,2.59,2.59,0,0,1,.14-.29A3.3,3.3,0,0,0,139.54,46.19Z"/><path class="3f95b231-6d4c-4960-bd06-013dc4e67e6b" d="M136.27,47.42a.14.14,0,0,1,0-.1l-.06,0a3.16,3.16,0,0,1-2.09,1.38,4.7,4.7,0,0,1-1.57-.19c-.3-.07-.59-.13-.88-.17a3,3,0,0,0-2.27.75l-.56.54c-.75.74-1.53,1.51-2.34,2.18a4.08,4.08,0,0,1-2.81.8,1,1,0,0,1-.71-.52,1.35,1.35,0,0,1,0-.78,1.69,1.69,0,0,0-.18-1.24,2.74,2.74,0,0,0-2.1-.94l-.65,0a1.72,1.72,0,0,1-1.31-.25,5.22,5.22,0,0,1-1.24-1.64l-.26-.43a3.57,3.57,0,0,0-.22-.35,12.46,12.46,0,0,1-1.13-2.06l0-.14c.24-1.74-1-4.12-2.67-6.42l-.51.25c1.53,2.09,2.7,4.23,2.65,5.81-1.6-.42-5.43-3-7.11-4.19a2.73,2.73,0,0,1-.71.19c1.42,1,6,4.14,7.77,4.56a8,8,0,0,0,1.22,2.3l.21.34.25.42a5.91,5.91,0,0,0,1.4,1.82,2.3,2.3,0,0,0,1.68.35,5.71,5.71,0,0,1,.59,0,2.2,2.2,0,0,1,1.65.68,1.19,1.19,0,0,1,.09.86,1.88,1.88,0,0,0,.09,1.09,1.48,1.48,0,0,0,1.09.82,2.51,2.51,0,0,0,.55.06,4.83,4.83,0,0,0,2.74-1c.83-.68,1.61-1.46,2.38-2.21l.55-.54a2.53,2.53,0,0,1,1.81-.6c.27,0,.54.1.82.17a5.18,5.18,0,0,0,1.76.2,3.69,3.69,0,0,0,2.45-1.56.41.41,0,0,0,.15-.36Z"/><path class="3bdd25e8-61cd-4834-a2cd-90037df4e937" d="M112.87,33.34l-.82-4.6h0c-.4-2.44-1.31-6.24-2.06-7.42-1-1.57-10.39-.39-10.39-.39h0c-2.72,1.57-1.79,8.25-1.74,10,0,1.59,3,8.31,3,8.31l4.81.81c1.74-.1,2.32.19,3.61-.81.5-.39,1.62-3.29,2.35-5.69Z"/><path class="3f95b231-6d4c-4960-bd06-013dc4e67e6b" d="M105.61,32.93c-2.29-1.34-1.52-5.28-.67-5.67,1.27-.58,1.12,1.23,1.59,1.32,1.07.2.37-2.76.37-2.76l4.34-.9a15,15,0,0,0-1.25-3.6c-1-1.57-10.39-.39-10.39-.39h0c-2.72,1.57-1.79,8.25-1.74,10a27.67,27.67,0,0,0,1.82,5.58C102,36.11,105.66,33,105.61,32.93Z"/><path class="3f95b231-6d4c-4960-bd06-013dc4e67e6b" d="M106.63,30.51a.51.51,0,0,0,0-.13c0-.49-.25-.88-.57-.88s-.57.39-.57.88.26.89.57.89a.44.44,0,0,0,.33-.19,60.19,60.19,0,0,1,6.34,7.08l.51-.25A59.37,59.37,0,0,0,106.63,30.51Z"/><polygon class="a1021661-44af-4bae-a352-f69d8b3f711e" points="117.66 120.56 90.9 119.82 92.58 103.35 92.58 80.99 115.06 80.99 117.66 120.56"/></g></g></svg>